<?xml version="1.0" encoding="UTF-8" standalone="no"?>
<svg
   xmlns:dc="http://purl.org/dc/elements/1.1/"
   xmlns:cc="http://creativecommons.org/ns#"
   xmlns:rdf="http://www.w3.org/1999/02/22-rdf-syntax-ns#"
   xmlns:svg="http://www.w3.org/2000/svg"
   xmlns="http://www.w3.org/2000/svg"
   viewBox="0 0 1821.3333 1024"
   height="1024"
   width="1821.3333"
   xml:space="preserve"
   id="svg2"
   version="1.1"><metadata
     id="metadata8"><rdf:RDF><cc:Work
         rdf:about=""><dc:format>image/svg+xml</dc:format><dc:type
           rdf:resource="http://purl.org/dc/dcmitype/StillImage" /></cc:Work></rdf:RDF></metadata><defs
     id="defs6"><clipPath
       id="clipPath38"
       clipPathUnits="userSpaceOnUse"><path
         id="path36"
         d="M 0,768 H 1366 V 0 H 0 Z" /></clipPath><clipPath
       id="clipPath58"
       clipPathUnits="userSpaceOnUse"><path
         id="path56"
         d="M 592.931,530.21 H 927.494 V 131.283 H 592.931 Z" /></clipPath><clipPath
       id="clipPath130"
       clipPathUnits="userSpaceOnUse"><path
         id="path128"
         d="M 410.186,390.641 H 703.781 V 157.691 H 410.186 Z" /></clipPath></defs><g
     transform="matrix(1.3333333,0,0,-1.3333333,0,1024)"
     id="g10"><g
       transform="translate(592.9307,543.063)"
       id="g12"><path
         id="path14"
         style="fill:none;stroke:#000000;stroke-width:1;stroke-linecap:round;stroke-linejoin:round;stroke-miterlimit:3;stroke-dasharray:none;stroke-opacity:1"
         d="M 0,0 173.908,-160.051" /></g><g
       transform="translate(1035.8691,494.3882)"
       id="g16"><path
         id="path18"
         style="fill:#000000;fill-opacity:1;fill-rule:evenodd;stroke:none"
         d="m 0,0 -14.457,3.887 47.051,159.8 12.762,9.566 51.04,-82.94 -9.569,-6.377 -41.471,66.988 z" /></g><g
       transform="translate(890.2207,484.2178)"
       id="g20"><path
         id="path22"
         style="fill:#ffa300;fill-opacity:1;fill-rule:evenodd;stroke:none"
         d="M 0,0 189.009,-50.64 87.929,-314.415 -44.259,-278.923 Z" /></g><g
       transform="translate(1079.2295,433.5776)"
       id="g24"><path
         id="path26"
         style="fill:#7b7b7b;fill-opacity:1;fill-rule:evenodd;stroke:none"
         d="m 0,0 -189.009,50.64 -12.755,3.393 28.706,41.266 L -57.817,64.697 -43.36,60.811 16.552,44.859 V -4.389 Z" /></g><g
       transform="translate(600.1592,552.7041)"
       id="g28"><path
         id="path30"
         style="fill:#000000;fill-opacity:1;fill-rule:evenodd;stroke:none"
         d="M 0,0 39.16,-365.29 H 32.331 L -9.841,0 Z M 46.388,0 71.695,-365.29 H 52.013 L 18.074,0 Z m 64.262,0 6.025,-365.29 H 91.977 L 75.507,0 Z m 74.303,0 -16.266,-365.29 H 143.186 L 148.605,0 Z M 252.632,0 215.68,-365.29 H 193.99 L 221.505,0 Z" /></g><g
       id="g32"><g
         clip-path="url(#clipPath38)"
         id="g34"><g
           transform="translate(824.6758,647.8887)"
           id="g40"><path
             id="path42"
             style="fill:#ffa300;fill-opacity:1;fill-rule:evenodd;stroke:none"
             d="m 0,0 c -0.537,-2.945 -0.804,-5.154 -0.804,-6.625 h 1.809 v 5.621 C 0.601,-0.733 0.267,-0.4 0,0 m -206.443,-95.185 33.939,-365.29 h -12.853 l -39.16,365.29 z m 53.621,-365.29 -25.306,365.29 h 29.118 l 16.47,-365.29 z m 44.98,0 -6.024,365.29 h 37.955 l -5.42,-365.29 z m 52.013,0 16.266,365.29 h 36.551 l -27.514,-365.29 z m 46.992,0 36.952,365.29 H 45.988 L 3.816,-460.475 Z m 57.034,439.389 c -0.404,-0.666 -0.937,-1.27 -1.608,-1.804 -2.009,-1.475 -4.083,-2.212 -6.225,-2.212 -2.408,0 -3.95,0.137 -4.621,0.404 -1.737,0.533 -2.474,2.075 -2.208,4.616 -0.937,-1.337 -1.941,-2.008 -3.012,-2.008 -4.683,0 -6.691,2.279 -6.024,6.829 -1.472,-0.533 -2.879,0.2 -4.217,2.208 -1.204,2.146 -1.675,4.687 -1.404,7.633 -1.741,-0.804 -3.416,-1.071 -5.021,-0.804 v -0.6 c -1.607,-7.633 -4.353,-11.449 -8.236,-11.449 -1.071,0 -1.671,0.2 -1.805,0.604 -0.27,0.266 -0.537,0.399 -0.803,0.399 v 3.013 C 2.476,-14.524 1.538,-15.528 0.2,-17.27 c -1.204,-1.204 -2.008,-1.808 -2.408,-1.808 h -1.808 c -0.133,0.138 -0.267,0.338 -0.404,0.604 -0.667,-1.07 -1.404,-2.275 -2.208,-3.616 l -4.017,3.817 c -0.133,-0.534 -0.804,-1.471 -2.008,-2.813 -1.071,-1.337 -2.008,-2.008 -2.812,-2.008 -1.737,0 -3.145,0.738 -4.217,2.212 -0.533,0.534 -0.803,1.138 -0.803,1.804 -2.409,-2.008 -5.021,-3.012 -7.829,-3.012 -3.216,0.671 -5.492,1.004 -6.829,1.004 v 3.816 h 0.2 c 0.538,0 0.804,0.338 0.804,1.005 -0.404,-0.133 -0.737,-0.267 -1.004,-0.401 -1.608,-0.537 -3.212,-0.403 -4.82,0.401 0,2.008 0.4,3.683 1.203,5.02 0.134,0.267 0.338,0.604 0.605,1.004 -0.133,0 -0.337,-0.266 -0.605,-0.804 -0.666,-0.533 -1.403,-1.27 -2.208,-2.208 -1.204,-1.337 -2.678,-2.008 -4.416,-2.008 -1.071,0 -1.808,0.2 -2.212,0.604 -0.534,0.533 -0.937,1.004 -1.204,1.404 0.267,0.267 0.67,0.537 1.204,0.804 -2.808,0.134 -4.217,1.137 -4.217,3.012 0,1.071 0.134,1.742 0.405,2.009 0.399,0.537 0.599,0.87 0.599,1.004 h 2.009 v 0.604 c 0,1.604 0.937,3.345 2.812,5.22 0.4,0.4 0.671,0.667 0.804,0.804 1.604,1.471 3.012,2.209 4.216,2.209 0.671,0 2.276,-1.005 4.821,-3.013 0.667,0.667 2.008,1.338 4.016,2.008 2.675,-0.404 4.954,-0.604 6.829,-0.604 l 1.004,-0.4 c 0.667,-0.266 1.004,-1.408 1.004,-3.416 0,-1.871 -0.471,-3.146 -1.408,-3.812 -1.07,-0.538 -1.942,-1.142 -2.609,-1.808 v -2.009 c 2.675,2.675 6.292,5.554 10.842,8.633 4.687,3.079 7.699,4.62 9.036,4.62 2.679,0 5.159,-0.87 7.433,-2.612 0.134,1.342 0.467,2.946 1.005,4.821 1.204,5.22 1.808,9.507 1.808,12.853 h 9.437 v -5.625 c 1.741,2.946 3.078,4.621 4.016,5.021 0.537,0.404 2.008,0.604 4.417,0.604 4.287,0 7.765,-1.271 10.444,-3.817 2.408,-2.274 3.612,-5.02 3.612,-8.232 0,-2.142 -0.333,-3.683 -1.004,-4.621 -1.07,-0.667 -1.941,-1.337 -2.608,-2.008 2.408,-0.133 4.954,-1.204 7.629,-3.212 2.412,-1.604 3.616,-3.079 3.616,-4.416 0,-2.009 -0.399,-3.617 -1.204,-4.821 -0.133,-0.267 -0.938,-1.204 -2.412,-2.812 3.217,0.537 6.228,-0.938 9.037,-4.417 0.137,-0.133 0.27,-0.266 0.404,-0.404 m -279.742,5.625 c 0.266,0.537 0.537,0.937 0.804,1.204 2.946,2.412 5.824,3.616 8.637,3.616 2.008,0 3.479,-0.337 4.416,-1.004 0.538,-0.404 1.271,-1.271 2.208,-2.612 -1.471,8.033 0.337,12.049 5.425,12.049 2.675,-0.133 6.224,-1.071 10.641,-2.812 1.741,0 2.545,0.471 2.412,1.408 l -1.608,2.608 c 2.546,0 5.02,-1.337 7.428,-4.016 -2.408,7.232 -2.474,14.595 -0.199,22.09 2.141,7.899 5.757,11.849 10.844,11.849 0.401,0 2.009,-0.667 4.821,-2.008 2.812,-1.471 4.616,-2.675 5.421,-3.613 1.608,1.738 2.678,3.479 3.212,5.221 0.404,0.267 2.412,0.4 6.024,0.4 1.875,0 4.621,-0.6 8.237,-1.808 3.613,-1.204 7.829,-1.804 12.649,-1.804 0,-1.342 0.338,-2.946 1.004,-4.821 0.538,-1.875 0.805,-3.416 0.805,-4.62 3.749,2.946 6.357,9.103 7.832,18.477 2.141,13.254 3.279,20.282 3.413,21.086 2.545,-0.404 5.287,-1.408 8.232,-3.012 2.813,-1.608 4.488,-3.149 5.021,-4.62 l 1.004,-0.2 c 0.671,-0.404 1.004,-0.871 1.004,-1.409 0.67,3.217 1.742,5.825 3.216,7.833 0.938,1.071 2.342,2.746 4.216,5.021 3.346,-0.4 5.892,-1.538 7.629,-3.413 2.279,-2.275 2.879,-4.887 1.809,-7.832 1.341,1.337 4.353,5.42 9.036,12.249 4.15,5.758 6.763,8.637 7.833,8.637 0.805,0 2.612,-1.409 5.421,-4.217 3.216,-2.812 5.157,-5.157 5.824,-7.028 0.537,6.024 3.013,10.774 7.433,14.257 3.612,2.946 7.762,4.416 12.449,4.416 8.837,0 13.12,-3.816 12.853,-11.444 -0.133,-4.15 -0.404,-9.775 -0.804,-16.87 4.553,1.204 8.299,0.67 11.245,-1.609 0.538,-0.399 1.071,-0.866 1.608,-1.404 1.071,-1.204 1.809,-2.745 2.208,-4.62 -1.07,-2.275 -2.074,-3.413 -3.012,-3.413 -1.608,0 -2.408,0.671 -2.408,2.009 -0.538,-0.671 -1.608,-1.675 -3.217,-3.012 -1.47,-1.338 -2.408,-2.009 -2.807,-2.009 -0.538,0 -1.276,0.671 -2.213,2.009 -0.8,1.337 -1.337,2.678 -1.604,4.016 0,-2.679 -1.942,-6.629 -5.825,-11.849 -0.803,0 -1.47,0.066 -2.008,0.2 -3.479,-6.692 -6.091,-10.041 -7.833,-10.041 h -1.204 c -0.266,-0.134 -0.466,-0.267 -0.603,-0.4 l -0.2,-0.2 c -0.938,-1.475 -2.276,-2.208 -4.017,-2.208 -2.541,0 -3.816,2.275 -3.816,6.824 -1.605,-3.745 -3.08,-6.291 -4.416,-7.629 -1.338,-1.474 -3.146,-2.208 -5.421,-2.208 -1.742,0 -2.879,0.667 -3.416,2.009 -0.534,0.937 -0.871,1.671 -1.004,2.208 -0.134,-0.404 -0.534,-0.804 -1.204,-1.204 -1.338,-1.342 -2.746,-2.009 -4.217,-2.009 h -0.404 c 0.404,-0.937 0.538,-2.278 0.404,-4.016 -0.671,-0.671 -1.809,-1.004 -3.416,-1.004 l 2.412,-4.82 c -0.267,0 -0.471,-0.134 -0.605,-0.404 l -0.399,-0.6 h -2.413 c 3.103,-0.056 5.245,-1.663 6.429,-4.821 -2.008,0 -3.012,-0.333 -3.012,-1.004 1.471,-0.804 2.408,-1.471 2.812,-2.008 0.133,-0.267 0.2,-1.071 0.2,-2.409 0,-1.474 -0.67,-2.812 -2.008,-4.016 -0.671,-0.671 -1.342,-1.141 -2.008,-1.408 -5.892,-5.891 -9.774,-8.837 -11.649,-8.837 -1.072,0 -1.742,0.137 -2.008,0.404 v 0.6 c 0,1.875 0.337,3.15 1.004,3.816 h -1.004 c -0.134,-0.266 -1.138,-1.003 -3.013,-2.208 -1.604,-1.07 -2.542,-1.608 -2.812,-1.608 -1.071,0 -1.604,0.138 -1.604,0.404 -0.134,0.4 -0.267,0.6 -0.404,0.6 -0.8,1.608 -0.734,2.946 0.204,4.017 0.666,0.67 1.603,1.608 2.808,2.812 -2.675,-1.337 -5.021,-2.008 -7.029,-2.008 -1.871,0 -3.145,0.337 -3.812,1.004 0.133,2.141 1.404,4.421 3.812,6.829 -3.879,-0.267 -5.82,0.87 -5.82,3.412 0,1.341 0.667,2.479 2.008,3.416 0.8,0.667 2.075,1.671 3.812,3.013 -2.542,-1.342 -4.283,-2.009 -5.221,-2.009 -1.07,0 -1.807,0.2 -2.208,0.6 -0.67,0.271 -1.137,0.404 -1.404,0.404 v 6.829 c -1.208,-1.208 -2.679,-1.808 -4.42,-1.808 -0.937,0 -1.47,0.133 -1.604,0.4 -0.405,0.404 -0.671,0.604 -0.804,0.604 v 4.82 c -0.937,0.534 -1.875,0.867 -2.812,1.004 0.537,-0.937 0.803,-1.941 0.803,-3.012 0,-1.608 -0.266,-2.879 -0.803,-3.816 h -2.008 c 1.874,-1.071 2.811,-2.075 2.811,-3.012 0,-0.938 -0.066,-1.675 -0.199,-2.209 0.399,0.134 0.8,0.2 1.204,0.2 0,-1.341 -0.338,-3.616 -1.005,-6.828 h 0.601 c 0.27,-0.267 0.404,-0.938 0.404,-2.008 0,-3.617 -1.942,-5.892 -5.825,-6.829 v 2.208 c -0.938,-0.667 -2.008,-1.337 -3.212,-2.008 -2.275,-1.471 -3.816,-2.208 -4.621,-2.208 h -2.008 c -0.133,0.133 -0.467,0.471 -1.004,1.004 v 2.008 l 2.008,2.008 h -1.004 c -1.337,-0.667 -2.541,-1.004 -3.612,-1.004 -2.146,-0.133 -3.216,0.804 -3.216,2.812 0,1.205 0.67,2.679 2.008,4.417 1.608,2.412 2.545,3.883 2.812,4.42 -0.667,-0.537 -1.604,-0.804 -2.812,-0.804 -0.4,2.408 0.137,4.754 1.608,7.029 -0.267,-0.134 -0.804,-0.2 -1.608,-0.2 -1.071,0 -1.737,0.133 -2.008,0.4 -0.534,0.404 -0.867,0.604 -1.004,0.604 v 1.808 c -1.471,-1.208 -2.742,-1.808 -3.813,-1.808 -2.145,0 -3.416,0.067 -3.816,0.2 -0.134,0.133 -0.2,0.4 -0.2,0.804 -0.138,-2.412 -0.471,-4.083 -1.004,-5.02 h -1.004 c -0.138,-1.071 -0.671,-2.479 -1.609,-4.217 -0.803,-1.208 -1.541,-2.075 -2.208,-2.612 h 3.817 c 0.666,-3.75 0.133,-5.958 -1.609,-6.629 -2.812,-0.666 -5.22,-1.404 -7.228,-2.208 -0.404,0.537 -0.804,1.004 -1.204,1.408 -1.608,-1.608 -3.483,-2.412 -5.625,-2.412 -2.008,0.671 -3.616,1.004 -4.82,1.004 v 3.012 c 0.537,0 0.804,0.267 0.804,0.804 -2.546,1.205 -3.817,2.208 -3.817,3.013 0,0.133 0.404,0.804 1.205,2.008 0.803,0.937 1.407,1.608 1.808,2.008 -2.008,0 -3.013,0.804 -3.013,2.408 0,0.138 1.005,1.942 3.013,5.425 -2.008,0.666 -3.346,1.004 -4.017,1.004 0.671,1.875 1.004,3.146 1.004,3.816 h -4.016 c 1.475,-1.341 1.675,-3.283 0.604,-5.824 -1.608,-3.079 -2.412,-4.754 -2.412,-5.021 0.67,0 1.275,-0.267 1.808,-0.804 v -12.853 h -0.804 c 0.435,-0.012 1.039,-0.145 1.808,-0.4 1.342,-0.671 2.008,-1.542 2.008,-2.613 0,-0.803 -0.333,-1.741 -1.004,-2.812 -0.804,-1.337 -1.741,-2.008 -2.812,-2.008 -1.071,0 -1.942,0.471 -2.608,1.408 -0.671,1.071 -1.271,1.604 -1.808,1.604 -0.938,0 -1.542,-0.333 -1.809,-1.004 -0.266,-0.667 -0.87,-1.004 -1.808,-1.004 h -1.404 c -2.008,-3.345 -3.95,-5.02 -5.824,-5.02 -0.667,0 -1.338,-0.134 -2.009,-0.4 -0.666,-0.267 -2.141,-0.4 -4.416,-0.4 0,0.266 -0.133,0.467 -0.404,0.6 l -0.6,0.2 v 6.024 c -0.938,-1.204 -2.545,-2.541 -4.82,-4.016 -2.275,-1.338 -3.95,-2.008 -5.021,-2.008 -2.546,0 -5.487,1.675 -8.837,5.02 -2.141,2.146 -3.479,4.017 -4.016,5.625" /></g><g
           transform="translate(748.7646,552.7041)"
           id="g44"><path
             id="path46"
             style="fill:#7b7b7b;fill-opacity:1;fill-rule:evenodd;stroke:none"
             d="m 0,0 h -37.955 -35.144 -29.118 -28.315 -18.073 -9.841 -18.874 v 64.058 h 17.27 287.571 18.877 L 146.398,0 H 121.899 104.026 72.899 36.348 Z" /></g><g
           transform="translate(876.2852,616.7622)"
           id="g48"><path
             id="path50"
             style="fill:#cb8200;fill-opacity:1;fill-rule:evenodd;stroke:none"
             d="m 0,0 h -287.571 c -0.267,0.937 -0.404,1.808 -0.404,2.612 0,5.354 1.608,9.708 4.82,13.053 0.538,-1.608 1.875,-3.478 4.017,-5.624 3.349,-3.346 6.291,-5.02 8.837,-5.02 1.071,0 2.745,0.67 5.02,2.007 2.275,1.475 3.883,2.813 4.821,4.017 V 5.021 l 0.6,-0.201 c 0.27,-0.133 0.403,-0.333 0.403,-0.6 2.275,0 3.75,0.134 4.417,0.4 0.671,0.267 1.341,0.401 2.008,0.401 1.875,0 3.817,1.674 5.825,5.02 h 1.404 c 0.937,0 1.541,0.337 1.808,1.004 0.266,0.67 0.871,1.004 1.808,1.004 0.538,0 1.138,-0.533 1.809,-1.604 0.666,-0.938 1.537,-1.408 2.607,-1.408 1.071,0 2.009,0.671 2.813,2.008 0.67,1.071 1.004,2.008 1.004,2.812 0,1.071 -0.667,1.942 -2.008,2.612 -0.769,0.256 -1.373,0.389 -1.809,0.4 h 0.805 v 12.854 c -0.534,0.537 -1.138,0.804 -1.808,0.804 0,0.266 0.804,1.941 2.412,5.02 1.07,2.542 0.87,4.483 -0.604,5.825 h 4.016 c 0,-0.671 -0.333,-1.942 -1.004,-3.817 0.671,0 2.008,-0.337 4.017,-1.004 -2.009,-3.483 -3.013,-5.287 -3.013,-5.425 0,-1.604 1.004,-2.408 3.013,-2.408 -0.401,-0.4 -1.005,-1.07 -1.809,-2.008 -0.8,-1.204 -1.204,-1.875 -1.204,-2.008 0,-0.804 1.271,-1.808 3.817,-3.012 0,-0.538 -0.267,-0.804 -0.804,-0.804 v -3.012 c 1.204,0 2.812,-0.334 4.82,-1.005 2.141,0 4.016,0.804 5.624,2.413 0.4,-0.405 0.8,-0.871 1.204,-1.408 2.009,0.804 4.417,1.541 7.229,2.208 1.742,0.67 2.275,2.878 1.608,6.628 h -3.816 c 0.666,0.538 1.404,1.404 2.208,2.613 0.937,1.737 1.471,3.145 1.608,4.216 h 1.004 c 0.534,0.938 0.867,2.608 1.005,5.021 0,-0.405 0.066,-0.671 0.199,-0.805 0.4,-0.133 1.671,-0.2 3.817,-0.2 1.071,0 2.342,0.6 3.812,1.808 v -1.808 c 0.137,0 0.471,-0.2 1.004,-0.604 0.271,-0.266 0.938,-0.4 2.008,-0.4 0.805,0 1.342,0.067 1.609,0.2 -1.471,-2.274 -2.008,-4.62 -1.609,-7.028 1.208,0 2.146,0.266 2.812,0.804 -0.266,-0.538 -1.203,-2.008 -2.812,-4.421 -1.337,-1.737 -2.008,-3.212 -2.008,-4.416 0,-2.008 1.071,-2.946 3.216,-2.813 1.071,0 2.275,0.338 3.613,1.005 h 1.004 l -2.008,-2.008 v -2.009 c 0.537,-0.533 0.871,-0.87 1.004,-1.004 h 2.008 c 0.804,0 2.345,0.738 4.621,2.208 1.204,0.671 2.274,1.342 3.212,2.009 v -2.209 c 3.882,0.938 5.825,3.213 5.825,6.829 0,1.071 -0.134,1.741 -0.405,2.008 h -0.6 c 0.667,3.212 1.005,5.487 1.005,6.829 -0.405,0 -0.805,-0.067 -1.204,-0.2 0.133,0.533 0.199,1.27 0.199,2.208 0,0.937 -0.938,1.941 -2.812,3.012 h 2.008 c 0.537,0.938 0.804,2.209 0.804,3.817 0,1.07 -0.267,2.074 -0.804,3.012 0.938,-0.137 1.875,-0.471 2.813,-1.004 v -4.82 c 0.133,0 0.399,-0.201 0.803,-0.604 0.134,-0.268 0.667,-0.401 1.605,-0.401 1.741,0 3.212,0.6 4.42,1.808 v -6.828 c 0.266,0 0.733,-0.134 1.404,-0.404 0.401,-0.4 1.138,-0.6 2.208,-0.6 0.938,0 2.679,0.666 5.221,2.008 -1.737,-1.342 -3.013,-2.346 -3.813,-3.012 -1.34,-0.938 -2.007,-2.075 -2.007,-3.417 0,-2.541 1.941,-3.679 5.82,-3.412 -2.408,-2.408 -3.679,-4.687 -3.813,-6.829 0.667,-0.666 1.942,-1.004 3.813,-1.004 2.008,0 4.353,0.671 7.028,2.009 -1.204,-1.205 -2.141,-2.142 -2.807,-2.813 -0.938,-1.071 -1.004,-2.408 -0.205,-4.016 0.137,0 0.271,-0.2 0.405,-0.6 0,-0.267 0.533,-0.404 1.603,-0.404 0.271,0 1.208,0.537 2.813,1.608 1.875,1.204 2.879,1.941 3.012,2.208 h 1.004 c -0.667,-0.667 -1.004,-1.941 -1.004,-3.816 v -0.6 c 0.267,-0.267 0.937,-0.404 2.008,-0.404 1.875,0 5.758,2.945 11.65,8.837 0.666,0.266 1.337,0.737 2.007,1.408 1.338,1.204 2.008,2.541 2.008,4.016 0,1.337 -0.066,2.141 -0.199,2.408 -0.404,0.538 -1.342,1.204 -2.812,2.008 0,0.671 1.003,1.004 3.011,1.004 -1.183,3.158 -3.325,4.766 -6.428,4.821 h 2.413 l 0.399,0.6 c 0.134,0.271 0.338,0.404 0.605,0.404 l -2.413,4.82 c 1.608,0 2.746,0.334 3.416,1.005 0.134,1.737 0,3.078 -0.404,4.016 h 0.404 c 1.471,0 2.879,0.667 4.217,2.008 0.67,0.4 1.071,0.8 1.204,1.204 0.133,-0.537 0.471,-1.27 1.004,-2.208 0.537,-1.342 1.675,-2.008 3.416,-2.008 2.276,0 4.083,0.733 5.421,2.208 1.337,1.337 2.812,3.883 4.416,7.629 0,-4.55 1.276,-6.825 3.817,-6.825 1.741,0 3.079,0.733 4.016,2.208 l 0.2,0.2 c 0.137,0.134 0.337,0.267 0.604,0.4 h 1.204 c 1.741,0 4.354,3.35 7.833,10.041 0.537,-0.133 1.204,-0.199 2.008,-0.199 3.883,5.22 5.825,9.169 5.825,11.849 0.267,-1.338 0.804,-2.68 1.604,-4.017 0.937,-1.337 1.674,-2.008 2.212,-2.008 0.4,0 1.337,0.671 2.808,2.008 1.608,1.337 2.679,2.342 3.217,3.012 0,-1.337 0.8,-2.008 2.408,-2.008 0.938,0 1.941,1.138 3.012,3.413 0.134,-0.801 0.2,-1.671 0.2,-2.609 0,-4.149 -2.475,-8.099 -7.429,-11.849 -4.42,-3.079 -7.565,-4.483 -9.44,-4.216 0.671,-0.404 2.008,-2.075 4.015,-5.021 2.146,-3.349 3.217,-5.087 3.217,-5.22 0,-3.75 -3.75,-6.629 -11.249,-8.637 1.208,0 3.483,-0.333 6.828,-1.004 0.538,-0.133 1.072,-0.2 1.609,-0.2 -2.008,-0.671 -3.35,-1.342 -4.017,-2.008 -2.545,2.008 -4.149,3.012 -4.82,3.012 -1.204,0 -2.612,-0.737 -4.216,-2.208 -0.134,-0.138 -0.404,-0.404 -0.805,-0.804 -1.875,-1.875 -2.811,-3.617 -2.811,-5.221 v -0.604 h -2.009 c 0,-0.133 -0.2,-0.467 -0.6,-1.004 -0.27,-0.267 -0.404,-0.937 -0.404,-2.008 0,-1.875 1.408,-2.879 4.217,-3.012 -0.534,-0.267 -0.938,-0.538 -1.204,-0.804 0.266,-0.4 0.67,-0.871 1.204,-1.405 0.403,-0.404 1.141,-0.604 2.212,-0.604 1.737,0 3.212,0.671 4.416,2.009 0.805,0.937 1.542,1.674 2.208,2.208 0.267,0.537 0.472,0.804 0.604,0.804 -0.266,-0.4 -0.47,-0.738 -0.604,-1.004 -0.804,-1.338 -1.203,-3.013 -1.203,-5.021 1.607,-0.804 3.212,-0.937 4.82,-0.4 0.267,0.134 0.6,0.267 1.004,0.4 0,-0.667 -0.267,-1.004 -0.805,-1.004 h -0.199 v -3.816 c 1.337,0 3.612,-0.333 6.828,-1.004 2.809,0 5.421,1.004 7.829,3.012 0,-0.667 0.271,-1.271 0.804,-1.804 1.071,-1.475 2.479,-2.212 4.217,-2.212 0.803,0 1.741,0.67 2.811,2.008 1.204,1.341 1.875,2.279 2.009,2.812 l 4.017,-3.816 c 0.803,1.341 1.541,2.545 2.208,3.616 0.136,-0.267 0.27,-0.466 0.404,-0.604 h 1.808 c 0.4,0 1.204,0.604 2.408,1.808 1.338,1.742 2.275,2.746 2.812,3.012 v -3.012 c 0.267,0 0.534,-0.133 0.804,-0.4 0.134,-0.404 0.733,-0.604 1.805,-0.604 3.883,0 6.629,3.816 8.236,11.449 v 0.6 c 1.605,-0.267 3.279,0 5.021,0.804 -0.271,-2.945 0.2,-5.487 1.404,-7.633 1.338,-2.008 2.745,-2.741 4.217,-2.208 -0.667,-4.55 1.34,-6.828 6.024,-6.828 1.07,0 2.074,0.671 3.012,2.008 -0.267,-2.542 0.47,-4.083 2.208,-4.617 0.671,-0.266 2.213,-0.404 4.621,-0.404 2.141,0 4.216,0.738 6.224,2.213 0.671,0.533 1.205,1.137 1.609,1.804 C -1.138,7.095 0,4.083 0,1.004 Z" /></g><g
           id="g52"><g
             id="g54" /><g
             id="g66"><g
               style="opacity:0.56079102"
               id="g64"
               clip-path="url(#clipPath58)"><g
                 id="g62"
                 transform="translate(846.3623,343.248)"><path
                   id="path60"
                   style="fill:#000000;fill-opacity:1;fill-rule:evenodd;stroke:none"
                   d="m 0,0 -23.694,-211.965 -185.758,6.931 -43.98,391.996 156.336,-143.586 -16.163,-26.91 z m 81.132,-195.598 -85.149,24.702 24.703,167.28 60.446,-12.049 z" /></g></g></g></g><g
           transform="translate(852.2217,250.707)"
           id="g68"><path
             id="path70"
             style="fill:#ffa300;fill-opacity:1;fill-rule:evenodd;stroke:none"
             d="m 0,0 3.974,-0.294 c -0.463,-13.508 -5.531,-24.934 -15.199,-34.269 -10.065,-9.601 -22.38,-14.468 -36.948,-14.602 v 4.271 c 13.442,0.067 24.797,4.502 34.069,13.312 C -5.099,-22.977 -0.396,-12.445 0,0 m -111.246,8.543 4.863,-0.294 c 0.467,-14.042 6.194,-26.322 17.188,-36.853 10.393,-9.932 22.611,-15.329 36.653,-16.192 v -4.271 c -15.301,0.929 -28.609,6.754 -39.933,17.485 -12.052,11.453 -18.308,24.828 -18.771,40.125 m 48.075,10.233 v -33.873 l -3.876,0.201 v -16.392 l 32.284,-1.189 v 1.189 l 8.837,-0.294 v 16.187 l -3.675,0.201 v 55.523 l -17.975,2.184 -4.374,-3.325 -3.871,0.446 -16.587,-12.613 V 15.893 l 7.845,3.973 v -1.785 z m 10.629,34.763 v -5.166 l 4.369,-0.494 v 5.166 C -35.656,51.123 -25.031,45.263 -16.289,35.461 -7.88,26.193 -3.443,15.764 -2.98,4.173 l -4.966,0.4 V 0.601 L -2.98,0.303 c -0.463,-11.591 -4.9,-21.459 -13.309,-29.602 -8.742,-8.209 -19.367,-12.351 -31.884,-12.418 v 4.77 l -4.369,0.196 v -4.863 c -13.046,0.925 -24.404,6.024 -34.072,15.296 -10.065,9.864 -15.364,21.255 -15.894,34.167 l 6.456,-0.397 v 4.369 l -6.456,0.499 c 0.597,12.779 5.896,23.176 15.894,31.19 9.668,7.88 21.026,11.22 34.072,10.029 m 0,7.55 V 56.92 c -14.042,1.389 -26.26,-2.153 -36.653,-10.629 -10.928,-8.61 -16.659,-19.8 -17.188,-33.575 l -4.863,0.298 c 0.596,15.096 6.851,27.315 18.771,36.654 11.324,9.201 24.632,13.01 39.933,11.421 m 4.369,-4.667 v 3.973 c 14.568,-2.319 26.883,-9.17 36.948,-20.56 C -1.557,29.107 3.511,17.054 3.974,3.68 L 0,3.978 C -0.462,16.427 -5.165,27.581 -14.104,37.449 -23.376,47.844 -34.731,54.17 -48.173,56.422 M 30.492,-2.282 v -39.435 c 0,-11.852 -5.794,-17.744 -17.38,-17.678 l -61.285,0.499 v 6.456 c 15.363,0.196 28.405,5.393 39.132,15.59 10.198,10.002 15.497,22.119 15.894,36.356 z m -83.034,-56.614 -70.428,0.694 c -16.289,0.196 -24.4,7.448 -24.334,21.753 v 47.776 l 32.183,-2.486 c 0.462,-16.289 7.15,-30.527 20.061,-42.709 12.054,-11.457 26.225,-17.615 42.518,-18.474 z m -94.762,74.891 v 47.776 c -0.066,14.435 8.045,20.463 24.334,18.079 l 70.428,-10.63 v -7.052 c -16.293,1.789 -30.464,-2.153 -42.518,-11.821 -12.844,-9.932 -19.532,-22.942 -20.061,-39.034 z m 99.131,54.531 61.285,-9.041 c 11.586,-1.721 17.38,-8.507 17.38,-20.36 L 30.492,1.49 6.853,3.479 C 6.39,17.65 1.091,30.397 -9.041,41.721 -19.768,53.837 -32.81,61.124 -48.173,63.572 Z" /></g><g
           transform="translate(689.3232,226.2754)"
           id="g72"><path
             id="path74"
             style="fill:#000000;fill-opacity:1;fill-rule:evenodd;stroke:none"
             d="M 0,0 V 17.678 L -27.016,19.27 V 1.091 Z M -27.016,-27.812 0,-28.11 v 17.681 l -27.016,0.796 z M 0,85.124 v 17.678 l -27.016,3.777 V 88.399 Z M -27.016,48.671 V 30.492 L 0,28.604 v 17.781 z m 0,10.331 L 0,56.418 V 74.1 l -27.016,2.976 z M 202.631,5.958 V -8.343 l 16.588,-0.595 V 4.966 Z m 16.588,-23.141 -16.588,0.494 v -14.203 l 16.588,-0.297 z m 0,44.796 -16.588,1.392 V 14.799 l 16.588,-1.193 z M 15.595,35.759 v -47.777 c -0.067,-14.304 8.045,-21.556 24.334,-21.753 l 70.427,-0.694 h 4.37 l 61.285,-0.498 c 11.586,-0.066 17.38,5.825 17.38,17.678 v 39.434 3.773 39.635 c 0,11.852 -5.794,18.638 -17.38,20.36 l -61.285,9.041 -4.37,0.693 -70.427,10.63 C 23.64,108.666 15.528,102.638 15.595,88.203 V 40.427 Z m 203.624,36.254 -16.588,2.282 V 60.093 l 16.588,-1.985 z m -16.588,12.813 16.588,-2.482 v 9.037 l 5.659,-0.992 V -46.784 h -5.659 v 6.954 l -16.588,0.098 v -7.151 L 0,-47.977 v 8.841 h -27.016 v -9.037 l -11.124,-0.102 v 181.871 l 11.124,-1.887 V 119.985 L 0,115.816 v 11.421 L 202.631,94.063 Z m 16.588,-35.362 -16.588,1.89 V 37.05 l 16.588,-1.589 z" /></g><g
           transform="translate(740.9756,259.25)"
           id="g76"><path
             id="path78"
             style="fill:#ffffff;fill-opacity:1;fill-rule:evenodd;stroke:none"
             d="M 0,0 C 0.463,-15.297 6.719,-28.672 18.771,-40.125 30.095,-50.856 43.403,-56.681 58.704,-57.61 v 4.271 c -14.042,0.863 -26.26,6.26 -36.653,16.192 C 11.057,-26.616 5.33,-14.336 4.863,-0.294 Z M 111.246,-8.543 C 110.851,-20.988 106.147,-31.52 97.143,-40.125 87.87,-48.935 76.515,-53.37 63.073,-53.437 v -4.271 c 14.568,0.134 26.883,5.001 36.948,14.603 9.668,9.334 14.736,20.76 15.199,34.268 z M 63.073,47.879 c 13.442,-2.252 24.797,-8.578 34.07,-18.973 8.938,-9.868 13.641,-21.022 14.103,-33.471 l 3.974,-0.298 c -0.463,13.374 -5.531,25.427 -15.199,36.155 -10.065,11.39 -22.38,18.241 -36.948,20.56 z m -4.369,4.667 C 43.403,54.135 30.095,50.326 18.771,41.125 6.852,31.786 0.596,19.567 0,4.471 L 4.863,4.173 c 0.53,13.775 6.26,24.965 17.188,33.575 10.393,8.476 22.611,12.018 36.653,10.629 z m 0,-7.55 C 45.658,46.188 34.3,42.847 24.632,34.967 14.634,26.953 9.335,16.556 8.738,3.777 l 6.456,-0.499 v -4.369 l -6.456,0.397 c 0.531,-12.912 5.829,-24.303 15.894,-34.167 9.668,-9.272 21.026,-14.371 34.072,-15.296 v 4.863 l 4.369,-0.196 v -4.77 c 12.517,0.067 23.142,4.209 31.884,12.418 8.409,8.143 12.846,18.011 13.309,29.602 l -4.966,0.298 v 3.972 l 4.966,-0.4 C 107.803,7.221 103.366,17.65 94.957,26.918 86.215,36.72 75.59,42.58 63.073,44.502 v -5.166 l -4.369,0.494 z m 83.034,-55.821 -23.639,1.788 C 117.702,-23.274 112.403,-35.391 102.205,-45.393 91.479,-55.59 78.437,-60.787 63.073,-60.983 v -6.456 h -4.369 v 6.554 c -16.293,0.859 -30.464,7.017 -42.517,18.474 -12.912,12.182 -19.6,26.42 -20.062,42.709 L -36.058,2.784 V 7.452 L -3.875,4.77 c 0.529,16.092 7.217,29.102 20.062,39.034 12.053,9.668 26.224,13.61 42.517,11.821 v 7.052 l 4.369,-0.694 V 55.029 C 78.437,52.581 91.479,45.294 102.205,33.178 112.337,21.854 117.636,9.107 118.099,-5.063 l 23.639,-1.99 z" /></g><g
           transform="translate(817.459,219.4189)"
           id="g80"><path
             id="path82"
             style="fill:#794d00;fill-opacity:1;fill-rule:evenodd;stroke:none"
             d="M 0,0 V -1.188 L -32.284,0 v 16.392 l 3.876,-0.201 v 33.873 l 8.044,4.169 V 17.584 l -3.973,0.196 V 0.895 Z m -29.801,51.154 -7.845,-3.973 v 11.128 l 16.587,12.613 3.872,-0.446 -12.614,-9.685 z" /></g><g
           transform="translate(817.459,219.4189)"
           id="g84"><path
             id="path86"
             style="fill:#7b7b7b;fill-opacity:1;fill-rule:evenodd;stroke:none"
             d="M 0,0 -24.337,0.895 V 17.78 l 3.973,-0.196 v 36.649 l -8.044,-4.169 -1.393,-0.695 v 1.785 9.637 l 12.614,9.685 4.374,3.325 17.975,-2.184 V 16.094 l 3.675,-0.2 V -0.294 Z" /></g><g
           transform="translate(503.3936,294.6406)"
           id="g88"><path
             id="path90"
             style="fill:#000000;fill-opacity:1;fill-rule:evenodd;stroke:none"
             d="M 0,0 21.247,36.794 -72.785,91.086 -94.028,54.291 Z m 83.104,-123.57 29.978,51.918 -252.11,145.566 -29.977,-51.919 z M 137.083,-30.088 28.742,32.468 7.5,-4.327 115.836,-66.883 Z M 80.351,-128.34 -245.348,59.712 -253.769,45.133 c -2.071,-3.585 -3.71,-7.06 -4.922,-10.422 -0.663,-1.847 -1.197,-3.659 -1.597,-5.44 -3.749,-16.611 3.793,-30.354 22.62,-41.222 L 14.441,-157.518 c 18.835,-10.872 34.505,-10.535 47.017,1.016 1.341,1.239 2.643,2.608 3.914,4.103 2.302,2.73 4.491,5.891 6.558,9.476 z m -309.963,215.308 -12.982,-22.483 68.136,-39.344 12.983,22.487 z m 19.749,34.205 107.657,-62.159 21.247,36.794 -107.662,62.16 z m -2.754,-4.769 -14.241,-24.667 68.137,-39.341 14.242,24.664 z m 26.754,46.333 325.698,-188.055 21.718,37.614 c 13.85,23.984 8.508,43.058 -16.022,57.222 l -252.114,145.565 c -24.53,14.164 -43.717,9.253 -57.567,-14.731 z" /></g><g
           transform="translate(503.3936,294.6406)"
           id="g92"><path
             id="path94"
             style="fill:#ffffff;fill-opacity:1;fill-rule:evenodd;stroke:none"
             d="m 0,0 -94.028,54.291 21.243,36.795 94.032,-54.292 z m -229.612,86.968 68.137,-39.34 -12.983,-22.487 -68.136,39.344 -2.754,-4.773 325.699,-188.052 2.753,4.77 -252.109,145.565 29.977,51.919 252.11,-145.566 2.754,4.769 L 7.5,-4.327 l 21.242,36.795 108.341,-62.556 2.752,4.77 -325.698,188.055 -2.758,-4.769 107.662,-62.16 -21.247,-36.794 -107.657,62.159 -2.754,-4.769 68.138,-39.344 -14.242,-24.664 -68.137,39.341 z" /></g><g
           transform="translate(540.3491,428.6631)"
           id="g96"><path
             id="path98"
             style="fill:#ffa300;fill-opacity:1;fill-rule:evenodd;stroke:none"
             d="m 0,0 12.39,-62.571 117.264,-67.706 23.996,41.564 z m -44.29,25.573 12.39,-62.572 10.9,-6.294 -12.386,62.571 z m -45.651,26.362 12.386,-62.576 12.265,-7.084 -12.386,62.576 z m -45.655,26.357 12.39,-62.576 12.265,-7.079 -12.39,62.571 z m -21,-43.298 -12.386,62.576 -15.332,8.852 -24,-41.564 z" /></g><g
           transform="translate(506.9629,447.9409)"
           id="g100"><path
             id="path102"
             style="fill:#000000;fill-opacity:1;fill-rule:evenodd;stroke:none"
             d="m 0,0 12.386,-62.571 33.39,-19.278 -12.39,62.571 z m 1.486,-56.276 -12.39,62.571 -33.386,19.278 12.386,-62.575 z m -91.431,108.207 12.39,-62.572 33.387,-19.278 -12.387,62.576 z m 0.126,-55.493 -12.39,62.576 -33.387,19.278 12.387,-62.576 z" /></g><g
           transform="translate(520.0981,520.0552)"
           id="g104"><path
             id="path106"
             style="fill:#ffa300;fill-opacity:1;fill-rule:evenodd;stroke:none"
             d="M 0,0 63.823,1.212 72.299,-8.107 8.477,-9.319 Z m 98.256,-36.645 91.177,-100.241 -35.528,-32.32 -119.471,131.349 z m -133.752,75.671 63.823,1.212 9.535,-10.484 -63.823,-1.212 z m -35.496,39.027 63.823,1.212 9.535,-10.484 -63.823,-1.213 z m 37.861,29.754 -63.823,-1.212 -11.919,13.104 35.531,32.315 z" /></g><g
           transform="translate(618.3545,483.4102)"
           id="g108"><path
             id="path110"
             style="fill:#000000;fill-opacity:1;fill-rule:evenodd;stroke:none"
             d="m 0,0 -63.823,-1.212 -25.957,28.538 63.822,1.212 z m -98.256,36.645 -25.962,28.542 63.823,1.212 25.961,-28.542 z m -61.457,67.568 63.822,1.213 25.961,-28.543 -63.822,-1.212 z m -35.497,39.027 63.823,1.212 25.961,-28.542 -63.823,-1.212 z" /></g><g
           transform="translate(621.6606,356.2783)"
           id="g112"><path
             id="path114"
             style="fill:#ffa300;fill-opacity:1;fill-rule:evenodd;stroke:none"
             d="m 0,0 c 1.73,2.996 2.181,6.189 1.354,9.578 -0.974,3.346 -2.962,5.887 -5.962,7.617 -2.997,1.73 -6.142,2.158 -9.441,1.271 -3.44,-0.922 -6.025,-2.879 -7.755,-5.876 -1.733,-3 -2.11,-6.173 -1.137,-9.523 0.832,-3.385 2.746,-5.946 5.742,-7.675 3.001,-1.731 6.221,-2.138 9.661,-1.217 C -4.244,-4.938 -1.729,-3.001 0,0 m -2.733,8.479 c 0.615,-2.29 0.345,-4.435 -0.809,-6.436 -1.208,-2.086 -2.929,-3.393 -5.169,-3.918 -2.346,-0.706 -4.518,-0.479 -6.519,0.675 -2.09,1.204 -3.369,2.972 -3.839,5.303 -0.758,2.254 -0.534,4.428 0.67,6.518 1.157,2.001 2.926,3.279 5.311,3.84 2.2,0.667 4.346,0.4 6.436,-0.808 1.996,-1.153 3.307,-2.879 3.919,-5.174 m 43.195,-21.485 c -3.44,-0.922 -6.024,-2.879 -7.754,-5.88 -1.734,-2.996 -2.11,-6.17 -1.138,-9.519 0.832,-3.389 2.746,-5.947 5.743,-7.676 3,-1.733 6.22,-2.138 9.66,-1.216 3.295,0.883 5.805,2.824 7.539,5.82 1.73,3.001 2.18,6.19 1.353,9.58 -0.977,3.349 -2.962,5.886 -5.962,7.62 -2.997,1.729 -6.146,2.153 -9.441,1.271 m 28.366,22.69 c -2.345,-0.706 -4.519,-0.483 -6.519,0.674 -2.091,1.205 -3.37,2.974 -3.84,5.307 -0.757,2.252 -0.533,4.425 0.675,6.515 1.153,2.001 2.921,3.279 5.307,3.841 2.2,0.666 4.345,0.399 6.436,-0.809 2,-1.153 3.307,-2.879 3.918,-5.169 0.615,-2.295 0.346,-4.44 -0.808,-6.44 C 72.79,11.516 71.068,10.206 68.828,9.684 M 41.423,-17.011 c 2.2,0.663 4.346,0.396 6.432,-0.808 2.001,-1.157 3.307,-2.883 3.923,-5.173 0.612,-2.291 0.345,-4.437 -0.808,-6.437 -1.208,-2.091 -2.934,-3.396 -5.174,-3.918 -2.345,-0.706 -4.518,-0.482 -6.514,0.67 -2.091,1.209 -3.37,2.978 -3.841,5.308 -0.756,2.255 -0.533,4.428 0.671,6.518 1.153,1.997 2.926,3.276 5.311,3.84 M 63.49,30.028 C 60.054,29.103 57.465,27.146 55.735,24.149 54.005,21.148 53.629,17.976 54.602,14.63 55.429,11.241 57.347,8.68 60.344,6.95 63.34,5.22 66.561,4.812 70,5.734 c 3.295,0.887 5.809,2.825 7.54,5.825 1.733,2.997 2.18,6.189 1.352,9.574 -0.973,3.349 -2.961,5.891 -5.962,7.621 -2.996,1.729 -6.142,2.157 -9.44,1.274" /></g><g
           transform="translate(670.0029,298.3857)"
           id="g116"><path
             id="path118"
             style="fill:#7b7b7b;fill-opacity:1;fill-rule:evenodd;stroke:none"
             d="M 0,0 51.146,88.58 C -8.88,131.713 -58.638,121.068 -98.119,56.649 Z m -48.342,57.893 c -1.73,-3.001 -4.244,-4.939 -7.538,-5.826 -3.44,-0.921 -6.661,-0.513 -9.661,1.217 -2.997,1.73 -4.911,4.29 -5.742,7.676 -0.973,3.35 -0.596,6.522 1.137,9.522 1.73,2.997 4.314,4.955 7.754,5.876 3.299,0.887 6.445,0.459 9.441,-1.27 3.001,-1.731 4.989,-4.272 5.962,-7.617 0.828,-3.389 0.377,-6.582 -1.353,-9.578 M -7.88,44.887 c 3.295,0.882 6.444,0.458 9.441,-1.272 3,-1.733 4.985,-4.27 5.961,-7.62 0.828,-3.39 0.377,-6.578 -1.353,-9.579 -1.733,-2.996 -4.244,-4.937 -7.539,-5.82 -3.439,-0.922 -6.659,-0.518 -9.66,1.216 -2.996,1.729 -4.91,4.287 -5.742,7.675 -0.973,3.35 -0.596,6.524 1.138,9.52 1.729,3.001 4.314,4.958 7.754,5.88 m 23.027,43.034 c 3.298,0.883 6.445,0.455 9.441,-1.275 3.001,-1.729 4.989,-4.271 5.962,-7.621 0.828,-3.384 0.381,-6.577 -1.353,-9.574 -1.73,-3 -4.244,-4.937 -7.539,-5.824 -3.439,-0.922 -6.66,-0.515 -9.657,1.216 -2.996,1.729 -4.914,4.291 -5.742,7.679 -0.972,3.346 -0.596,6.519 1.134,9.52 1.73,2.996 4.318,4.953 7.754,5.879" /></g><g
           transform="translate(618.9272,364.7578)"
           id="g120"><path
             id="path122"
             style="fill:#000000;fill-opacity:1;fill-rule:evenodd;stroke:none"
             d="m 0,0 c -0.612,2.295 -1.922,4.021 -3.918,5.174 -2.091,1.208 -4.236,1.474 -6.437,0.807 -2.384,-0.56 -4.153,-1.838 -5.311,-3.839 -1.204,-2.09 -1.427,-4.264 -0.67,-6.519 0.471,-2.33 1.749,-4.099 3.839,-5.303 2.001,-1.153 4.174,-1.381 6.519,-0.674 2.24,0.525 3.962,1.832 5.17,3.917 C 0.345,-4.436 0.616,-2.29 0,0 m 44.156,-25.49 c -2.385,-0.565 -4.157,-1.844 -5.31,-3.84 -1.204,-2.091 -1.428,-4.264 -0.671,-6.519 0.471,-2.33 1.749,-4.098 3.84,-5.307 1.996,-1.153 4.17,-1.376 6.515,-0.67 2.24,0.521 3.965,1.827 5.174,3.918 1.152,2 1.419,4.145 0.807,6.436 -0.615,2.29 -1.922,4.017 -3.922,5.173 -2.087,1.204 -4.233,1.472 -6.433,0.809 M 71.561,1.204 c 2.24,0.523 3.962,1.832 5.169,3.919 1.154,2 1.424,4.146 0.809,6.44 -0.612,2.291 -1.918,4.016 -3.918,5.169 -2.091,1.208 -4.237,1.475 -6.437,0.809 -2.385,-0.562 -4.154,-1.84 -5.307,-3.841 -1.208,-2.09 -1.431,-4.262 -0.675,-6.514 0.471,-2.333 1.75,-4.103 3.84,-5.307 2,-1.157 4.174,-1.381 6.519,-0.675" /></g><g
           id="g124"><g
             id="g126" /><g
             id="g138"><g
               style="opacity:0.56079102"
               id="g136"
               clip-path="url(#clipPath130)"><g
                 id="g134"
                 transform="translate(419.2222,285.4111)"><path
                   id="path132"
                   style="fill:#000000;fill-opacity:1;fill-rule:evenodd;stroke:none"
                   d="m 0,0 c -3.51,5.582 -6.522,10.167 -9.037,13.76 9.049,6.808 20.765,15.476 35.143,26.004 19.6,14.273 38.078,27.46 55.426,39.559 9.001,-11.469 26.071,-33.927 51.209,-67.372 -8.382,29.448 -14.305,50.601 -17.772,63.458 9.359,2.605 25.659,6.923 48.898,12.951 15.674,4.025 37.662,9.649 65.968,16.87 4.037,-16.728 11.297,-47.722 21.792,-92.977 12.363,-51.377 23.342,-93.514 32.932,-126.418 -45.036,-2.69 -79.979,-4.733 -104.826,-6.122 -43.023,-2.581 -71.809,-5.06 -86.352,-7.433 C 34.983,-48.597 3.856,-6.021 0,0" /></g></g></g></g><g
           transform="translate(495.353,346.2881)"
           id="g140"><path
             id="path142"
             style="fill:#ffa300;fill-opacity:1;fill-rule:evenodd;stroke:none"
             d="m 0,0 130.917,-167.385 -1.899,-1.487 c -0.341,0.165 -0.709,0.278 -1.106,0.342 -0.898,0.043 -1.714,-0.224 -2.444,-0.797 -0.69,-0.537 -1.106,-1.235 -1.243,-2.087 -0.051,-0.411 -0.039,-0.804 0.039,-1.176 l -1.298,-1.016 c -0.341,0.169 -0.71,0.282 -1.106,0.345 -0.898,0.039 -1.71,-0.223 -2.44,-0.797 -0.694,-0.541 -1.106,-1.235 -1.247,-2.086 -0.051,-0.416 -0.035,-0.808 0.039,-1.176 l -1.87,-1.467 c -0.33,0.181 -0.695,0.294 -1.107,0.345 -0.898,0.039 -1.71,-0.228 -2.443,-0.796 -0.69,-0.541 -1.106,-1.24 -1.244,-2.091 -0.05,-0.408 -0.047,-0.808 0.009,-1.2 l -1.554,-1.216 c -0.325,0.181 -0.694,0.295 -1.106,0.345 -0.898,0.04 -1.71,-0.227 -2.443,-0.796 -0.691,-0.541 -1.106,-1.24 -1.244,-2.091 -0.051,-0.407 -0.047,-0.808 0.008,-1.199 l -1.843,-1.44 c -0.326,0.176 -0.695,0.294 -1.103,0.341 -0.898,0.043 -1.713,-0.224 -2.443,-0.796 -0.69,-0.538 -1.106,-1.235 -1.247,-2.087 -0.047,-0.412 -0.043,-0.812 0.011,-1.2 l -1.557,-1.216 c -0.325,0.176 -0.694,0.294 -1.102,0.345 -0.898,0.039 -1.714,-0.228 -2.444,-0.796 -0.69,-0.541 -1.106,-1.239 -1.247,-2.091 -0.047,-0.412 -0.043,-0.811 0.012,-1.2 l -2.13,-1.667 c -0.329,0.181 -0.694,0.295 -1.106,0.346 -0.898,0.039 -1.714,-0.228 -2.444,-0.797 -0.69,-0.541 -1.105,-1.239 -1.242,-2.09 -0.052,-0.408 -0.048,-0.809 0.007,-1.2 l -1.267,-0.988 c -0.325,0.175 -0.694,0.293 -1.106,0.34 -0.898,0.043 -1.71,-0.223 -2.44,-0.796 -0.694,-0.542 -1.106,-1.236 -1.247,-2.086 -0.051,-0.413 -0.047,-0.813 0.012,-1.201 l -1.843,-1.443 c -0.33,0.181 -0.695,0.294 -1.107,0.345 -0.898,0.04 -1.714,-0.224 -2.443,-0.796 -0.691,-0.541 -1.106,-1.236 -1.244,-2.087 -0.051,-0.411 -0.047,-0.812 0.009,-1.2 l -1.554,-1.22 c -0.329,0.181 -0.694,0.294 -1.106,0.345 -0.898,0.04 -1.714,-0.223 -2.443,-0.796 -0.691,-0.541 -1.106,-1.236 -1.244,-2.086 -0.051,-0.412 -0.047,-0.813 0.008,-1.201 l -1.843,-1.443 c -0.326,0.18 -0.695,0.294 -1.107,0.345 -0.894,0.039 -1.709,-0.227 -2.439,-0.797 -0.69,-0.541 -1.106,-1.238 -1.248,-2.09 -0.05,-0.408 -0.046,-0.807 0.012,-1.2 l -1.557,-1.216 c -0.325,0.181 -0.694,0.294 -1.105,0.345 -0.895,0.039 -1.711,-0.224 -2.44,-0.796 -0.69,-0.541 -1.107,-1.239 -1.247,-2.087 -0.052,-0.412 -0.048,-0.811 0.011,-1.2 l -0.98,-0.769 c -0.326,0.181 -0.695,0.294 -1.107,0.345 -0.898,0.04 -1.71,-0.227 -2.439,-0.796 -0.694,-0.541 -1.106,-1.235 -1.248,-2.087 -0.05,-0.411 -0.046,-0.811 0.012,-1.2 l -1.098,-0.858 -130.917,167.386 z" /></g><g
           transform="translate(545.2788,151.9609)"
           id="g144"><path
             id="path146"
             style="fill:#000000;fill-opacity:1;fill-rule:evenodd;stroke:none"
             d="m 0,0 c 0.337,0.757 0.702,1.479 1.099,2.157 -2.518,1.561 -5.334,2.549 -8.445,2.965 -5.895,0.651 -11.186,-0.858 -15.873,-4.521 -1.651,-1.291 -3.044,-2.723 -4.174,-4.284 l 4.374,-5.593 c 5.647,-7.221 12.104,-7.99 19.364,-2.314 l 1.149,0.902 C -2.722,-7.637 -1.886,-4.075 0,0 M 33.19,26.793 C 28.044,25.06 22.859,22.148 17.635,18.065 15.215,16.171 13.085,14.226 11.242,12.229 10.571,11.582 9.951,10.908 9.378,10.214 7.331,7.931 5.617,5.569 4.24,3.13 5.994,1.84 7.59,0.271 9.034,-1.573 l 0.043,-0.055 28.694,22.443 c -0.776,0.753 -1.525,1.592 -2.243,2.514 -0.902,1.153 -1.683,2.307 -2.338,3.464 m 9.876,29.64 c -0.599,-0.341 -1.188,-0.738 -1.76,-1.189 -4.688,-3.667 -7.406,-8.425 -8.155,-14.272 -0.467,-4.079 0.063,-7.876 1.577,-11.399 1.588,0.502 3.134,0.903 4.628,1.208 4.228,0.77 7.767,0.718 10.614,-0.152 4.86,5.102 4.828,10.806 -0.098,17.104 z m -133.72,55.797 75.483,-96.514 -2.879,-2.251 -75.487,96.514 z m -22.424,16.082 c -7.26,-5.679 -8.064,-12.127 -2.416,-19.348 l 4.373,-5.59 c 1.789,0.718 3.511,1.723 5.162,3.017 4.687,3.663 7.425,8.436 8.209,14.316 0.35,3.118 0.071,6.087 -0.835,8.907 -0.757,-0.219 -1.545,-0.4 -2.361,-0.545 -4.413,-0.851 -8.072,-0.799 -10.978,0.145 z m 46.13,26.514 c -0.965,0.914 -1.899,1.949 -2.801,3.103 -0.718,0.922 -1.353,1.851 -1.898,2.785 l -28.695,-22.443 0.043,-0.055 c 1.444,-1.848 2.581,-3.774 3.412,-5.785 2.695,0.745 5.401,1.839 8.116,3.278 0.808,0.389 1.607,0.832 2.4,1.322 2.385,1.311 4.785,2.906 7.205,4.801 5.225,4.087 9.296,8.417 12.218,12.994 m 18.932,-9.248 75.484,-96.511 -2.879,-2.255 -75.487,96.514 z m 12.218,11.693 -6.805,8.699 c -4.93,6.302 -10.453,7.707 -16.579,4.216 0.157,-2.973 -0.647,-6.417 -2.408,-10.335 -0.656,-1.381 -1.42,-2.781 -2.287,-4.205 3.051,-2.318 6.612,-3.742 10.68,-4.275 5.86,-0.683 11.132,0.812 15.814,4.476 0.577,0.45 1.107,0.924 1.585,1.424 m 1.62,-2.076 c -0.545,-0.49 -1.106,-0.957 -1.683,-1.408 -5.263,-4.118 -11.182,-5.773 -17.752,-4.97 -4.448,0.545 -8.358,2.099 -11.727,4.664 -3.174,-4.648 -7.413,-9.044 -12.712,-13.191 -2.381,-1.862 -4.735,-3.486 -7.056,-4.871 -0.793,-0.494 -1.577,-0.953 -2.357,-1.38 -2.868,-1.558 -5.763,-2.801 -8.692,-3.73 1.008,-3.111 1.302,-6.413 0.874,-9.904 -0.843,-6.601 -3.894,-11.964 -9.158,-16.078 -1.612,-1.259 -3.283,-2.29 -5.017,-3.086 L -29.06,-1.554 c 1.193,1.487 2.593,2.864 4.206,4.127 5.263,4.114 11.201,5.785 17.81,5.013 3.491,-0.428 6.625,-1.507 9.402,-3.236 1.604,2.62 3.51,5.13 5.714,7.534 0.6,0.659 1.236,1.31 1.907,1.958 1.902,1.922 4.043,3.812 6.428,5.675 5.299,4.146 10.59,7.202 15.865,9.159 -1.678,3.887 -2.247,8.055 -1.702,12.508 0.805,6.569 3.836,11.915 9.1,16.03 0.577,0.451 1.164,0.883 1.773,1.294 z m -25.946,18.807 c 6.331,3.464 12.034,1.949 17.113,-4.542 L 53.159,46.498 c 5.079,-6.491 5.173,-12.391 0.286,-17.701 -0.793,-0.804 -1.691,-1.601 -2.691,-2.381 -1.047,0.789 -2.263,1.357 -3.648,1.698 -2.451,0.683 -5.436,0.698 -8.954,0.051 -0.788,-0.18 -1.577,-0.36 -2.361,-0.545 0.518,-0.894 1.118,-1.784 1.808,-2.671 0.722,-0.922 1.471,-1.757 2.247,-2.513 0.906,-0.84 1.871,-1.601 2.899,-2.284 L 9.096,-6.166 c -0.569,1.044 -1.228,2.044 -1.977,3.005 l -0.047,0.055 c -1.2,1.537 -2.533,2.847 -4,3.929 C 3.032,0.792 3.009,0.745 3.001,0.675 1.487,-2.612 0.75,-5.546 0.781,-8.119 c 0,-1.424 0.255,-2.742 0.769,-3.949 l -4.036,-3.155 c -7.527,-5.89 -14.238,-5.071 -20.125,2.46 l -96.174,122.962 c -5.887,7.528 -5.067,14.239 2.463,20.125 l 4.032,3.154 c 1.052,-0.789 2.268,-1.354 3.648,-1.695 2.495,-0.65 5.519,-0.639 9.076,0.035 0.067,-0.007 0.118,0.004 0.157,0.036 -0.694,1.682 -1.647,3.291 -2.847,4.829 l -0.047,0.054 c -0.75,0.961 -1.561,1.844 -2.436,2.648 l 33.649,26.318 c 0.412,-1.165 0.922,-2.287 1.518,-3.365 0.545,-0.934 1.176,-1.863 1.898,-2.785 0.691,-0.887 1.412,-1.683 2.157,-2.401 0.365,0.718 0.734,1.44 1.099,2.158 1.475,3.259 2.176,6.162 2.106,8.703 0,1.427 -0.255,2.742 -0.769,3.954 1,0.78 1.984,1.459 2.957,2.035" /></g><g
           transform="translate(545.2788,151.9609)"
           id="g148"><path
             id="path150"
             style="fill:#ffffff;fill-opacity:1;fill-rule:evenodd;stroke:none"
             d="m 0,0 c -1.886,-4.075 -2.722,-7.637 -2.506,-10.688 l -1.149,-0.902 c -7.26,-5.676 -13.717,-4.907 -19.364,2.314 l -4.374,5.593 c 1.13,1.561 2.523,2.993 4.174,4.284 4.687,3.663 9.978,5.172 15.873,4.521 C -4.235,4.706 -1.419,3.718 1.099,2.157 0.702,1.479 0.337,0.757 0,0 m 33.19,26.793 c 0.655,-1.157 1.436,-2.311 2.338,-3.464 0.718,-0.922 1.467,-1.761 2.243,-2.514 L 9.077,-1.628 9.034,-1.573 C 7.59,0.271 5.994,1.84 4.24,3.13 c 1.377,2.439 3.091,4.801 5.138,7.084 0.573,0.694 1.193,1.368 1.864,2.015 1.843,1.997 3.973,3.942 6.393,5.836 5.224,4.083 10.409,6.995 15.555,8.728 m 9.876,29.64 6.806,-8.7 c 4.926,-6.298 4.958,-12.002 0.098,-17.104 -2.847,0.87 -6.386,0.922 -10.614,0.152 -1.494,-0.305 -3.04,-0.706 -4.628,-1.208 -1.514,3.523 -2.044,7.32 -1.577,11.399 0.749,5.847 3.467,10.605 8.155,14.272 0.572,0.451 1.161,0.848 1.76,1.189 m -156.144,71.879 1.154,0.902 c 2.906,-0.944 6.565,-0.996 10.978,-0.145 0.816,0.145 1.604,0.326 2.361,0.545 0.906,-2.82 1.185,-5.789 0.835,-8.907 -0.784,-5.88 -3.522,-10.653 -8.209,-14.316 -1.651,-1.294 -3.373,-2.299 -5.162,-3.017 l -4.373,5.59 c -5.648,7.221 -4.844,13.669 2.416,19.348 m 22.424,-16.082 -2.883,-2.251 75.487,-96.514 2.879,2.251 z m 23.706,42.596 c -2.922,-4.577 -6.993,-8.907 -12.218,-12.994 -2.42,-1.895 -4.82,-3.49 -7.205,-4.801 -0.793,-0.49 -1.592,-0.933 -2.4,-1.322 -2.715,-1.439 -5.421,-2.533 -8.116,-3.278 -0.831,2.011 -1.968,3.937 -3.412,5.785 l -0.043,0.055 28.695,22.443 c 0.545,-0.934 1.18,-1.863 1.898,-2.785 0.902,-1.154 1.836,-2.189 2.801,-3.103 m 31.15,2.445 c -0.478,-0.5 -1.008,-0.974 -1.585,-1.424 -4.682,-3.664 -9.954,-5.159 -15.814,-4.476 -4.068,0.533 -7.629,1.957 -10.68,4.275 0.867,1.424 1.631,2.824 2.287,4.205 1.761,3.918 2.565,7.362 2.408,10.335 6.126,3.491 11.649,2.086 16.579,-4.216 z m -12.218,-11.693 -2.882,-2.252 75.487,-96.514 2.879,2.255 z m 13.838,9.617 75.621,-96.687 C 40.834,58.097 40.247,57.665 39.67,57.214 34.406,53.099 31.375,47.753 30.57,41.184 30.025,36.731 30.594,32.563 32.272,28.676 26.997,26.719 21.706,23.663 16.407,19.517 14.022,17.654 11.881,15.764 9.979,13.842 9.308,13.194 8.672,12.543 8.072,11.884 5.868,9.48 3.962,6.97 2.358,4.35 -0.419,6.079 -3.553,7.158 -7.044,7.586 -13.653,8.358 -19.591,6.687 -24.854,2.573 -26.467,1.31 -27.867,-0.067 -29.06,-1.554 l -80.398,102.795 c 1.734,0.796 3.405,1.827 5.017,3.086 5.264,4.114 8.315,9.477 9.158,16.078 0.428,3.491 0.134,6.793 -0.874,9.904 2.929,0.929 5.824,2.172 8.692,3.73 0.78,0.427 1.564,0.886 2.357,1.38 2.321,1.385 4.675,3.009 7.056,4.871 5.299,4.147 9.538,8.543 12.712,13.191 3.369,-2.565 7.279,-4.119 11.727,-4.664 6.57,-0.803 12.489,0.852 17.752,4.97 0.577,0.451 1.138,0.918 1.683,1.408" /></g><g
           transform="translate(574.6997,160.2441)"
           id="g152"><path
             id="path154"
             style="fill:#ffa300;fill-opacity:1;fill-rule:evenodd;stroke:none"
             d="m 0,0 4.585,-5.867 -7.08,2.023 -4.247,-6.581 -0.384,7.892 -7.853,2.279 7.672,2.788 -0.333,7.244 4.471,-5.726 7.546,2.804 z" /></g><g
           transform="translate(479.1108,292.7852)"
           id="g156"><path
             id="path158"
             style="fill:#ffa300;fill-opacity:1;fill-rule:evenodd;stroke:none"
             d="m 0,0 4.585,-5.868 -7.08,2.024 -4.247,-6.582 -0.384,7.892 -7.853,2.279 7.672,2.788 -0.333,7.245 4.475,-5.726 7.542,2.804 z" /></g><g
           transform="translate(478.1504,218.792)"
           id="g160"><path
             id="path162"
             style="fill:#ffa300;fill-opacity:1;fill-rule:evenodd;stroke:none"
             d="m 0,0 -0.149,3.039 1.847,-2.36 3.11,1.133 -1.757,-2.859 1.847,-2.365 -2.925,0.776 -1.734,-2.655 -0.121,3.247 -3.327,0.926 z m -6.456,11.107 1.847,-2.361 3.107,1.13 -1.757,-2.859 1.846,-2.362 -2.925,0.774 -1.73,-2.652 -0.125,3.244 -3.327,0.929 3.213,1.118 z m -4.777,6.108 3.106,1.134 -1.757,-2.861 1.851,-2.364 -2.93,0.776 -1.73,-2.655 -0.125,3.247 -3.327,0.926 3.213,1.122 -0.149,3.04 z m -3.472,4.439 -2.926,0.774 -1.733,-2.657 -0.126,3.249 -3.322,0.929 3.208,1.118 -0.149,3.039 1.848,-2.36 3.11,1.129 -1.757,-2.859 z m -9.507,12.156 3.106,1.133 -1.757,-2.859 1.847,-2.365 -2.926,0.776 -1.729,-2.655 -0.126,3.248 -3.326,0.926 3.212,1.117 -0.149,3.044 z m 65.254,-83.434 3.106,1.134 -1.753,-2.864 1.848,-2.361 -2.93,0.777 -1.73,-2.656 -0.125,3.247 -3.327,0.926 3.213,1.118 -0.149,3.044 z m -8.158,10.429 1.847,-2.362 3.111,1.134 -1.758,-2.863 1.848,-2.36 -2.926,0.776 -1.734,-2.655 -0.122,3.243 -3.325,0.929 3.208,1.119 z m -4.503,2.793 -1.734,-2.656 -0.125,3.248 -3.322,0.929 3.208,1.114 -0.149,3.044 1.847,-2.361 3.111,1.129 -1.758,-2.859 1.848,-2.361 z m -6.942,11.844 3.106,1.13 -1.753,-2.859 1.847,-2.361 -2.93,0.773 -1.73,-2.652 -0.125,3.244 -3.326,0.929 3.212,1.119 -0.149,3.039 z m -8.01,7.39 -0.149,3.04 1.848,-2.365 3.11,1.134 -1.757,-2.86 1.848,-2.365 -2.927,0.776 -1.733,-2.655 -0.122,3.248 -3.326,0.926 z m -4.789,6.005 -1.729,-2.655 -0.126,3.244 -3.326,0.929 3.212,1.118 -0.149,3.04 1.848,-2.362 3.106,1.13 -1.757,-2.859 1.851,-2.361 z m 93.624,2.832 -2.926,0.773 -1.734,-2.656 -0.121,3.248 -3.326,0.93 3.209,1.117 -0.149,3.04 1.851,-2.361 3.106,1.13 -1.757,-2.86 z m -14.779,18.897 1.848,-2.361 -2.93,0.773 -1.73,-2.656 -0.125,3.248 -3.327,0.93 3.213,1.118 -0.149,3.039 1.847,-2.361 3.106,1.13 z m 8.378,-5.608 -1.753,-2.859 1.848,-2.366 -2.931,0.777 -1.73,-2.656 -0.125,3.248 -3.326,0.925 3.213,1.122 -0.15,3.04 1.848,-2.365 z m -16.399,15.865 3.107,1.13 -1.758,-2.859 1.848,-2.362 -2.926,0.777 -1.734,-2.655 -0.121,3.244 -3.326,0.928 3.208,1.119 -0.149,3.043 z m -4.957,6.338 1.847,-2.361 -2.93,0.773 -1.73,-2.656 -0.125,3.248 -3.326,0.93 3.212,1.118 -0.149,3.039 1.847,-2.36 3.107,1.129 z m -11.677,20.031 -1.753,-2.859 1.847,-2.361 -2.93,0.772 -1.729,-2.655 -0.126,3.248 -3.326,0.926 3.212,1.121 -0.149,3.04 1.848,-2.361 z m 3.561,-9.66 3.111,1.133 -1.757,-2.859 1.847,-2.365 -2.926,0.777 -1.733,-2.656 -0.122,3.248 -3.326,0.925 3.208,1.122 -0.149,3.04 z m -11.625,14.869 1.847,-2.365 -2.925,0.777 -1.734,-2.656 -0.126,3.247 -3.326,0.926 3.213,1.118 -0.15,3.044 1.848,-2.365 3.11,1.134 z m -11.445,14.634 -2.93,0.777 -1.734,-2.656 -0.121,3.244 -3.326,0.929 3.212,1.118 -0.149,3.04 1.847,-2.361 3.107,1.129 -1.754,-2.859 z m 6.577,-3.306 -1.757,-2.86 1.848,-2.361 -2.926,0.773 -1.734,-2.656 -0.121,3.248 -3.331,0.93 3.213,1.117 -0.15,3.04 1.848,-2.361 z m -16.089,15.465 3.111,1.129 -1.757,-2.859 1.847,-2.361 -2.926,0.773 -1.733,-2.655 -0.126,3.247 -3.326,0.929 3.212,1.119 -0.149,3.04 z" /></g><g
           transform="translate(505.4609,269.9609)"
           id="g164"><path
             id="path166"
             style="fill:#000000;fill-opacity:1;fill-rule:evenodd;stroke:none"
             d="m 0,0 -4.667,-3.651 -0.229,0.29 3.178,4.248 -0.808,1.039 -15.732,-12.304 1.035,-1.325 2.907,1.157 0.223,-0.287 -5.416,-4.239 -0.224,0.29 1.82,2.537 -1.036,1.326 -7.664,-5.993 0.812,-1.035 4.66,1.879 0.224,-0.291 -4.496,-3.514 -3.647,4.667 0.69,0.541 0.224,-0.286 24.086,18.835 -0.227,0.29 0.635,0.494 z m 5.087,-7.812 0.635,0.494 1.981,-2.535 -0.632,-0.493 -0.227,0.285 -24.082,-18.834 0.811,-1.039 4.829,2.016 0.227,-0.29 -4.668,-3.652 -3.651,4.668 0.694,0.541 0.224,-0.286 24.086,18.838 z m 11.809,-13.795 2.346,-2.997 -4.667,-3.648 -0.271,0.346 3.224,4.189 -1.263,1.615 c -0.09,0.115 -0.184,0.197 -0.282,0.244 L -8.044,-40.649 c 0.058,-0.08 0.133,-0.177 0.223,-0.29 l 1.263,-1.613 4.612,1.938 0.271,-0.345 -4.495,-3.519 -2.342,2.997 c -0.509,0.655 -0.451,1.565 0.177,2.742 0.561,1.18 1.498,2.282 2.804,3.302 l 15.787,12.351 c 1.346,1.052 2.66,1.742 3.954,2.071 1.283,0.259 2.177,0.063 2.686,-0.592 m 19.569,-70.134 c -0.236,-0.493 -0.64,-0.964 -1.216,-1.415 -0.616,-0.479 -1.205,-0.758 -1.769,-0.828 -0.534,-0.106 -0.891,-0.047 -1.071,0.184 -0.212,0.271 -0.18,0.667 0.091,1.189 0.274,0.521 0.658,0.976 1.16,1.369 0.577,0.451 1.15,0.745 1.722,0.882 0.541,0.176 0.934,0.114 1.177,-0.196 0.208,-0.267 0.176,-0.663 -0.094,-1.185 m -10.571,57.206 -24.023,-18.791 0.898,-1.153 24.027,18.791 z m 0.918,0.251 0.542,-0.691 c 0.481,-0.615 0.427,-1.494 -0.166,-2.634 -0.6,-1.217 -1.572,-2.346 -2.917,-3.398 L 8.483,-53.354 c -1.306,-1.023 -2.6,-1.663 -3.882,-1.921 -1.291,-0.33 -2.177,-0.189 -2.656,0.427 l -0.541,0.691 c -0.514,0.654 -0.467,1.588 0.133,2.796 0.588,1.145 1.538,2.227 2.844,3.252 l 15.79,12.346 c 1.342,1.052 2.66,1.742 3.954,2.068 1.279,0.262 2.177,0.066 2.687,-0.589 m 14.465,-19.795 -0.271,0.345 -24.086,-18.838 0.271,-0.346 -0.691,-0.541 -2.165,2.766 0.695,0.541 0.223,-0.287 22.012,17.21 -24.64,-15.276 -0.451,0.576 18.753,18.293 -18.439,-14.422 -0.718,-2.05 -0.631,-0.496 -1.714,2.189 0.631,0.499 2.107,0.156 22.76,17.803 -0.27,0.346 0.631,0.494 1.667,-2.13 -15.854,-15.465 18.831,11.66 1.981,-2.533 z m 5.766,-7.378 0.636,0.494 3.651,-4.667 -4.667,-3.648 -0.228,0.287 3.177,4.251 -0.808,1.036 -15.732,-12.305 1.035,-1.321 2.907,1.152 0.224,-0.286 -5.417,-4.235 -0.224,0.286 1.82,2.542 -1.035,1.321 -7.664,-5.993 0.811,-1.035 4.66,1.878 0.224,-0.286 -4.495,-3.515 -3.652,4.664 0.694,0.541 0.224,-0.286 24.087,18.839 z m 9.66,-12.23 c 0.534,0.11 0.906,0.032 1.114,-0.239 0.212,-0.27 0.201,-0.647 -0.035,-1.141 -0.27,-0.522 -0.694,-1.008 -1.271,-1.459 -2.883,-2.255 -9.205,-6.797 -18.968,-13.63 l -0.36,0.463 c 8.907,7.77 14.837,12.81 17.795,15.124 0.576,0.451 1.153,0.745 1.725,0.882 m -73.742,94.166 0.632,0.494 1.985,-2.535 -0.636,-0.494 -0.223,0.287 -24.087,-18.835 0.138,-0.176 c 0.301,-0.384 0.835,-0.553 1.604,-0.506 l 23.337,18.251 -0.228,0.286 0.636,0.498 2.027,-2.593 -0.635,-0.498 -0.223,0.29 -23.451,-18.341 c -0.185,-0.638 -0.122,-1.148 0.176,-1.533 l 0.047,-0.058 24.083,18.838 -0.181,0.227 0.636,0.498 1.981,-2.537 -0.632,-0.494 -0.18,0.231 -20.282,-15.862 c -1.228,-0.965 -2.452,-1.576 -3.668,-1.847 -1.212,-0.266 -2.043,-0.114 -2.494,0.463 -0.392,0.498 -0.432,1.18 -0.118,2.043 0.357,0.899 0.985,1.793 1.895,2.691 -1.118,-0.627 -2.154,-1.004 -3.111,-1.133 -0.913,-0.099 -1.553,0.086 -1.914,0.545 -0.478,0.615 -0.443,1.482 0.11,2.596 0.553,1.111 1.447,2.15 2.675,3.111 l 20.282,15.861 z" /></g><g
           transform="translate(636.7261,373.54)"
           id="g168"><path
             id="path170"
             style="fill:#ffa300;fill-opacity:1;fill-rule:evenodd;stroke:none"
             d="m 0,0 55.03,-205.228 -2.33,-0.623 c -0.247,0.283 -0.542,0.534 -0.883,0.746 -0.812,0.387 -1.663,0.461 -2.562,0.223 -0.846,-0.227 -1.498,-0.706 -1.961,-1.435 -0.208,-0.362 -0.348,-0.726 -0.423,-1.099 l -1.589,-0.428 c -0.251,0.287 -0.545,0.538 -0.882,0.749 -0.812,0.389 -1.663,0.463 -2.561,0.225 -0.847,-0.229 -1.503,-0.707 -1.962,-1.437 -0.207,-0.36 -0.349,-0.725 -0.423,-1.097 l -2.298,-0.617 c -0.228,0.291 -0.522,0.542 -0.883,0.75 -0.808,0.388 -1.663,0.462 -2.557,0.219 -0.847,-0.227 -1.503,-0.706 -1.962,-1.431 -0.207,-0.361 -0.36,-0.73 -0.462,-1.11 l -1.906,-0.511 c -0.232,0.292 -0.526,0.542 -0.883,0.75 -0.812,0.384 -1.663,0.459 -2.557,0.219 -0.847,-0.226 -1.503,-0.705 -1.965,-1.43 -0.204,-0.362 -0.357,-0.731 -0.46,-1.111 l -2.258,-0.607 c -0.232,0.294 -0.526,0.541 -0.883,0.749 -0.812,0.388 -1.663,0.462 -2.561,0.222 -0.847,-0.227 -1.502,-0.705 -1.962,-1.435 -0.207,-0.357 -0.36,-0.73 -0.458,-1.106 l -1.91,-0.513 c -0.228,0.294 -0.522,0.541 -0.883,0.749 -0.808,0.388 -1.663,0.463 -2.557,0.22 -0.847,-0.224 -1.503,-0.703 -1.961,-1.432 -0.208,-0.361 -0.361,-0.73 -0.463,-1.11 l -2.612,-0.699 c -0.232,0.29 -0.526,0.541 -0.883,0.745 -0.812,0.389 -1.663,0.463 -2.557,0.224 -0.847,-0.227 -1.502,-0.706 -1.965,-1.435 -0.208,-0.357 -0.357,-0.726 -0.459,-1.106 l -1.553,-0.42 c -0.232,0.294 -0.526,0.541 -0.883,0.749 -0.812,0.389 -1.663,0.463 -2.561,0.224 -0.847,-0.228 -1.498,-0.706 -1.961,-1.436 -0.208,-0.356 -0.361,-0.729 -0.459,-1.106 l -2.263,-0.608 c -0.227,0.29 -0.522,0.541 -0.883,0.749 -0.808,0.389 -1.663,0.463 -2.557,0.22 -0.847,-0.227 -1.502,-0.706 -1.961,-1.432 -0.208,-0.361 -0.36,-0.729 -0.463,-1.11 l -1.906,-0.51 c -0.232,0.29 -0.522,0.541 -0.883,0.749 -0.811,0.385 -1.662,0.459 -2.557,0.22 -0.847,-0.227 -1.502,-0.706 -1.965,-1.435 -0.204,-0.358 -0.356,-0.726 -0.459,-1.107 l -2.259,-0.607 c -0.231,0.294 -0.526,0.541 -0.882,0.749 -0.813,0.388 -1.664,0.463 -2.562,0.223 -0.847,-0.227 -1.498,-0.706 -1.961,-1.435 -0.208,-0.357 -0.361,-0.73 -0.459,-1.11 l -1.906,-0.51 c -0.231,0.291 -0.525,0.542 -0.887,0.749 -0.807,0.388 -1.662,0.464 -2.557,0.219 -0.847,-0.226 -1.502,-0.706 -1.961,-1.431 -0.208,-0.361 -0.36,-0.73 -0.463,-1.11 l -1.2,-0.322 c -0.227,0.291 -0.521,0.542 -0.883,0.749 -0.807,0.389 -1.662,0.464 -2.557,0.224 -0.847,-0.227 -1.502,-0.706 -1.965,-1.435 -0.204,-0.361 -0.356,-0.73 -0.458,-1.11 l -1.342,-0.361 -55.029,205.227 z" /></g><g
           transform="translate(612.1104,175.1885)"
           id="g172"><path
             id="path174"
             style="fill:#000000;fill-opacity:1;fill-rule:evenodd;stroke:none"
             d="m 0,0 c 0.604,0.564 1.224,1.082 1.855,1.557 -1.71,2.421 -3.914,4.428 -6.617,6.024 -5.169,2.907 -10.625,3.59 -16.375,2.048 -2.024,-0.545 -3.86,-1.314 -5.511,-2.311 l 1.836,-6.855 c 2.377,-8.853 8.013,-12.089 16.913,-9.7 l 1.415,0.381 C -5.491,-5.966 -3.334,-3.017 0,0 M 41.015,11.677 C 35.606,12.097 29.695,11.445 23.29,9.727 20.321,8.931 17.603,7.974 15.124,6.856 14.253,6.522 13.422,6.146 12.625,5.73 9.845,4.433 7.342,2.926 5.126,1.22 6.232,-0.651 7.091,-2.718 7.695,-4.981 l 0.02,-0.071 35.182,9.437 c -0.419,0.996 -0.78,2.059 -1.082,3.193 -0.38,1.411 -0.647,2.776 -0.8,4.099 M 61.697,35.096 C 61.01,35.014 60.316,34.876 59.61,34.688 53.864,33.146 49.502,29.833 46.525,24.741 44.505,21.172 43.501,17.47 43.521,13.638 c 1.659,-0.161 3.236,-0.397 4.73,-0.702 4.189,-0.946 7.429,-2.373 9.708,-4.288 6.468,2.797 8.668,8.053 6.597,15.78 z m -101.245,103.63 31.731,-118.33 -3.53,-0.95 -31.731,118.334 z m -14.344,23.565 c -8.899,-2.386 -12.167,-8.006 -9.79,-16.862 l 1.836,-6.853 c 1.929,-0.039 3.907,0.216 5.93,0.758 5.747,1.541 10.132,4.863 13.156,9.966 1.537,2.734 2.443,5.578 2.71,8.527 -0.781,0.09 -1.577,0.232 -2.385,0.419 -4.389,0.941 -7.738,2.417 -10.044,4.425 z m 52.817,6.365 c -0.529,1.22 -0.984,2.538 -1.364,3.949 -0.303,1.13 -0.522,2.233 -0.66,3.307 l -35.182,-9.433 0.019,-0.07 c 0.609,-2.263 0.899,-4.479 0.879,-6.656 2.773,-0.369 5.691,-0.42 8.751,-0.153 0.894,0.039 1.804,0.129 2.726,0.274 2.702,0.271 5.538,0.805 8.507,1.601 6.405,1.717 11.845,4.11 16.324,7.181 M 12.731,152.743 44.462,34.414 40.928,33.465 9.202,151.799 Z m -0.027,30.889 c 7.178,0.714 11.837,-2.911 13.971,-10.869 L 67.098,22.004 C 69.235,14.045 67.012,8.578 60.441,5.604 59.395,5.173 58.261,4.793 57.037,4.464 56.378,5.601 55.48,6.597 54.343,7.452 c -1.993,1.584 -4.731,2.77 -8.221,3.55 -0.797,0.142 -1.593,0.282 -2.385,0.42 0.121,-1.025 0.329,-2.079 0.619,-3.166 0.302,-1.129 0.664,-2.193 1.083,-3.189 0.506,-1.129 1.098,-2.208 1.777,-3.235 L 5.958,-9.233 c -0.114,1.18 -0.33,2.361 -0.647,3.538 l -0.016,0.071 c -0.506,1.882 -1.22,3.607 -2.149,5.181 -0.047,-0.016 -0.087,-0.051 -0.122,-0.11 -2.679,-2.436 -4.506,-4.844 -5.483,-7.225 -0.557,-1.31 -0.836,-2.624 -0.836,-3.934 l -4.946,-1.329 c -9.233,-2.476 -15.085,0.905 -17.559,10.135 l -40.427,150.759 c -2.475,9.233 0.906,15.084 10.135,17.559 l 4.946,1.326 c 0.659,-1.137 1.557,-2.13 2.694,-2.988 2.036,-1.573 4.825,-2.746 8.363,-3.511 0.059,-0.035 0.113,-0.047 0.161,-0.035 0.015,1.823 -0.228,3.675 -0.734,5.558 l -0.02,0.07 c -0.313,1.181 -0.717,2.307 -1.208,3.389 l 41.255,11.061 c -0.075,-1.232 -0.048,-2.46 0.082,-3.687 0.137,-1.074 0.357,-2.177 0.659,-3.307 0.29,-1.082 0.639,-2.102 1.047,-3.051 0.616,0.518 1.236,1.035 1.851,1.557 2.632,2.42 4.413,4.816 5.342,7.185 0.557,1.315 0.84,2.625 0.84,3.938 1.224,0.326 2.397,0.565 3.518,0.715 m 16.525,-27.448 c -0.695,-0.24 -1.397,-0.452 -2.103,-0.64 -6.452,-1.73 -12.543,-0.941 -18.277,2.369 -3.884,2.239 -6.872,5.197 -8.971,8.876 -4.738,-3.036 -10.358,-5.429 -16.857,-7.17 -2.918,-0.784 -5.719,-1.357 -8.398,-1.722 -0.918,-0.145 -1.824,-0.262 -2.706,-0.348 -3.248,-0.315 -6.401,-0.326 -9.457,-0.036 -0.29,-3.259 -1.31,-6.409 -3.071,-9.456 -3.353,-5.746 -8.26,-9.485 -14.712,-11.214 -1.977,-0.53 -3.919,-0.823 -5.821,-0.878 L -27.35,9.931 c 1.675,0.902 3.503,1.62 5.479,2.149 6.453,1.734 12.572,0.949 18.352,-2.345 3.048,-1.761 5.512,-3.977 7.386,-6.652 2.503,1.78 5.237,3.346 8.209,4.694 0.808,0.373 1.648,0.723 2.519,1.056 2.502,1.023 5.212,1.93 8.131,2.714 6.499,1.741 12.562,2.482 18.183,2.224 -0.024,4.232 1.083,8.291 3.326,12.174 3.307,5.731 8.189,9.465 14.642,11.195 0.706,0.192 1.415,0.356 2.137,0.498 z m -0.683,2.542 -2.863,10.668 c -2.071,7.722 -6.605,11.178 -13.602,10.358 -1.02,-2.797 -3.107,-5.651 -6.261,-8.566 -1.145,-1.016 -2.392,-2.004 -3.749,-2.977 1.902,-3.326 4.624,-6.028 8.158,-8.111 5.123,-2.914 10.559,-3.605 16.305,-2.063 0.706,0.189 1.377,0.419 2.012,0.691" /></g><g
           transform="translate(612.1104,175.1885)"
           id="g176"><path
             id="path178"
             style="fill:#ffffff;fill-opacity:1;fill-rule:evenodd;stroke:none"
             d="m 0,0 c -3.334,-3.017 -5.491,-5.966 -6.484,-8.856 l -1.415,-0.381 c -8.9,-2.389 -14.536,0.847 -16.913,9.7 l -1.836,6.855 c 1.651,0.997 3.487,1.766 5.511,2.311 5.75,1.542 11.206,0.859 16.375,-2.048 C -2.059,5.985 0.145,3.978 1.855,1.557 1.224,1.082 0.604,0.564 0,0 m 41.015,11.677 c 0.153,-1.323 0.42,-2.688 0.8,-4.099 0.302,-1.134 0.663,-2.197 1.082,-3.193 L 7.715,-5.052 7.695,-4.981 c -0.604,2.263 -1.463,4.33 -2.569,6.201 2.216,1.706 4.719,3.213 7.499,4.51 0.797,0.416 1.628,0.792 2.499,1.126 2.479,1.118 5.197,2.075 8.166,2.871 6.405,1.718 12.316,2.37 17.725,1.95 m 20.682,23.419 2.859,-10.668 c 2.071,-7.727 -0.129,-12.983 -6.597,-15.78 -2.279,1.915 -5.519,3.342 -9.708,4.288 -1.494,0.305 -3.071,0.541 -4.73,0.702 -0.02,3.832 0.984,7.534 3.004,11.103 2.977,5.092 7.339,8.405 13.085,9.947 0.706,0.188 1.4,0.326 2.087,0.408 m -115.589,127.195 1.413,0.38 c 2.306,-2.008 5.655,-3.484 10.044,-4.425 0.808,-0.187 1.604,-0.329 2.385,-0.419 -0.267,-2.949 -1.173,-5.793 -2.71,-8.527 -3.024,-5.103 -7.409,-8.425 -13.156,-9.966 -2.023,-0.542 -4.001,-0.797 -5.93,-0.758 l -1.836,6.853 c -2.377,8.856 0.891,14.476 9.79,16.862 m 14.344,-23.565 -3.53,-0.946 31.731,-118.334 3.53,0.95 z m 38.473,29.93 c -4.479,-3.071 -9.919,-5.464 -16.324,-7.181 -2.969,-0.796 -5.805,-1.33 -8.507,-1.601 -0.922,-0.145 -1.832,-0.235 -2.726,-0.274 -3.06,-0.267 -5.978,-0.216 -8.751,0.153 0.02,2.177 -0.27,4.393 -0.879,6.656 l -0.019,0.07 35.182,9.433 c 0.138,-1.074 0.357,-2.177 0.66,-3.307 0.38,-1.411 0.835,-2.729 1.364,-3.949 M 12.731,152.743 9.202,151.799 40.928,33.465 44.462,34.414 Z M 29.229,156.184 61.014,37.638 C 60.292,37.496 59.583,37.332 58.877,37.14 52.424,35.41 47.542,31.676 44.235,25.945 41.992,22.062 40.885,18.003 40.909,13.771 35.288,14.029 29.225,13.288 22.726,11.547 19.807,10.763 17.097,9.856 14.595,8.833 13.724,8.5 12.884,8.15 12.076,7.777 9.104,6.429 6.37,4.863 3.867,3.083 1.993,5.758 -0.471,7.974 -3.519,9.735 c -5.78,3.294 -11.899,4.079 -18.352,2.345 -1.976,-0.529 -3.804,-1.247 -5.479,-2.149 l -33.794,126.034 c 1.902,0.055 3.844,0.348 5.821,0.878 6.452,1.729 11.359,5.468 14.712,11.214 1.761,3.047 2.781,6.197 3.071,9.456 3.056,-0.29 6.209,-0.279 9.457,0.036 0.882,0.086 1.788,0.203 2.706,0.348 2.679,0.365 5.48,0.938 8.398,1.722 6.499,1.741 12.119,4.134 16.857,7.17 2.099,-3.679 5.087,-6.637 8.971,-8.876 5.734,-3.31 11.825,-4.099 18.277,-2.369 0.706,0.188 1.408,0.4 2.103,0.64 m -0.683,2.542 c -0.635,-0.272 -1.306,-0.502 -2.012,-0.691 -5.746,-1.542 -11.182,-0.851 -16.305,2.063 -3.534,2.083 -6.256,4.785 -8.158,8.111 1.357,0.973 2.604,1.961 3.749,2.977 3.154,2.915 5.241,5.769 6.261,8.566 6.997,0.82 11.531,-2.636 13.602,-10.358 z" /></g><g
           transform="translate(632.5566,170.7051)"
           id="g180"><path
             id="path182"
             style="fill:#ffa300;fill-opacity:1;fill-rule:evenodd;stroke:none"
             d="m 0,0 1.926,-7.189 -5.726,4.631 -6.48,-4.4 2.73,7.413 -6.334,5.166 8.15,-0.432 2.522,6.797 1.879,-7.016 8.04,-0.369 z" /></g><g
           transform="translate(583.9565,335.376)"
           id="g184"><path
             id="path186"
             style="fill:#ffa300;fill-opacity:1;fill-rule:evenodd;stroke:none"
             d="m 0,0 1.926,-7.188 -5.723,4.631 -6.483,-4.4 2.729,7.412 -6.334,5.166 8.151,-0.432 2.522,6.798 1.879,-7.017 8.04,-0.368 z" /></g><g
           transform="translate(571.0444,262.9365)"
           id="g188"><path
             id="path190"
             style="fill:#ffa300;fill-opacity:1;fill-rule:evenodd;stroke:none"
             d="M 0,0 1.051,2.855 1.828,-0.039 5.13,-0.216 2.396,-2.161 3.173,-5.056 0.78,-3.196 -1.852,-4.965 -0.694,-1.93 -3.393,0.228 Z M -1.601,12.747 -0.824,9.85 2.479,9.677 -0.255,7.73 0.522,4.836 -1.871,6.691 -4.503,4.927 l 1.157,3.035 -2.698,2.154 3.393,-0.223 z m -2.008,7.488 3.303,-0.173 -2.734,-1.945 0.777,-2.898 -2.393,1.859 -2.632,-1.765 1.158,3.036 -2.699,2.153 3.393,-0.228 1.051,2.86 z m -3.851,7.299 -2.628,-1.764 1.153,3.036 -2.698,2.152 3.392,-0.227 1.052,2.855 0.776,-2.895 3.303,-0.175 -2.734,-1.942 0.777,-2.899 z m -1.604,13.046 3.302,-0.173 -2.734,-1.945 0.777,-2.895 -2.393,1.855 -2.632,-1.765 1.158,3.036 -2.699,2.154 3.393,-0.224 1.051,2.856 z m 27.428,-102.296 3.306,-0.173 -2.737,-1.945 0.776,-2.895 -2.388,1.856 -2.632,-1.766 1.153,3.036 -2.695,2.158 3.389,-0.228 1.051,2.856 z m -3.428,12.79 0.776,-2.898 3.303,-0.173 -2.734,-1.945 0.777,-2.899 -2.393,1.86 -2.627,-1.766 1.153,3.036 -2.699,2.153 3.393,-0.227 z m -3.052,4.33 -2.632,-1.768 1.154,3.039 -2.699,2.153 3.393,-0.227 1.051,2.855 0.777,-2.894 3.302,-0.176 -2.734,-1.943 0.777,-2.898 z m -1.757,13.611 3.303,-0.173 -2.738,-1.946 0.777,-2.894 -2.389,1.859 -2.632,-1.769 1.154,3.036 -2.695,2.157 3.388,-0.227 1.052,2.855 z m -4.483,9.93 1.051,2.86 0.777,-2.899 3.306,-0.172 -2.737,-1.946 0.776,-2.898 -2.392,1.859 -2.628,-1.765 1.153,3.036 -2.699,2.153 z m -4.691,5.637 1.157,3.036 -2.698,2.153 3.392,-0.227 1.051,2.854 0.777,-2.894 3.303,-0.172 -2.734,-1.945 0.777,-2.9 -2.393,1.86 z m 89.898,-32.237 -2.389,1.859 -2.636,-1.765 1.157,3.036 -2.698,2.153 3.393,-0.227 1.051,2.859 0.776,-2.899 3.303,-0.173 -2.734,-1.944 z m -6.213,23.173 0.777,-2.895 -2.389,1.856 -2.636,-1.766 1.157,3.036 -2.698,2.153 3.392,-0.223 1.052,2.855 0.776,-2.894 3.303,-0.177 z m 2.216,-8.264 3.302,-0.177 -2.733,-1.945 0.776,-2.895 -2.392,1.86 -2.632,-1.77 1.157,3.036 -2.698,2.158 3.392,-0.228 1.051,2.855 z m -5.585,20.839 3.298,-0.173 -2.734,-1.945 0.777,-2.9 -2.388,1.86 -2.633,-1.765 1.154,3.035 -2.699,2.154 3.393,-0.227 1.051,2.858 z m -2.087,7.769 0.777,-2.894 -2.393,1.859 -2.631,-1.769 1.156,3.036 -2.698,2.157 3.393,-0.228 1.051,2.856 0.776,-2.895 3.303,-0.176 z m -2.91,23 -2.734,-1.945 0.776,-2.895 -2.392,1.855 -2.632,-1.765 1.157,3.036 -2.698,2.154 3.393,-0.224 1.051,2.856 0.777,-2.899 z M 79.077,8.405 76.342,6.46 77.119,3.565 74.727,5.421 72.095,3.656 l 1.157,3.035 -2.699,2.158 3.393,-0.228 1.051,2.856 0.777,-2.895 z m -8.19,18.404 0.777,-2.899 -2.393,1.86 -2.632,-1.765 1.157,3.035 -2.698,2.153 3.392,-0.227 1.051,2.855 0.777,-2.894 3.303,-0.177 z m -4.813,17.944 -2.392,1.855 -2.632,-1.765 1.157,3.036 -2.699,2.153 3.393,-0.223 1.051,2.855 0.777,-2.898 3.302,-0.173 -2.734,-1.946 z m 2.028,-7.562 0.776,-2.894 -2.392,1.858 -2.632,-1.768 1.157,3.035 -2.698,2.157 3.393,-0.226 1.051,2.854 0.776,-2.894 3.302,-0.177 z m -6.025,22.466 3.303,-0.172 -2.734,-1.945 0.777,-2.899 -2.393,1.859 -2.632,-1.765 1.157,3.036 -2.698,2.153 3.393,-0.228 1.051,2.856 z" /></g><g
           transform="translate(621.6021,299.3467)"
           id="g192"><path
             id="path194"
             style="fill:#000000;fill-opacity:1;fill-rule:evenodd;stroke:none"
             d="m 0,0 -5.722,-1.533 -0.095,0.352 4.586,2.668 -0.342,1.275 -19.285,-5.174 0.435,-1.623 3.126,-0.071 0.094,-0.353 -6.64,-1.781 -0.098,0.353 2.671,1.623 -0.436,1.624 -9.398,-2.517 0.342,-1.272 5.024,-0.093 0.094,-0.354 -5.51,-1.478 -1.534,5.722 0.847,0.228 0.094,-0.353 29.531,7.919 -0.094,0.353 0.776,0.208 z m 1.627,-9.178 0.777,0.208 0.836,-3.11 -0.777,-0.208 -0.094,0.353 -29.53,-7.915 0.341,-1.275 5.232,-0.035 0.094,-0.354 -5.718,-1.533 -1.538,5.723 0.851,0.227 0.094,-0.353 29.531,7.915 z m 6.46,-20.988 -5.718,-1.533 -0.118,0.424 4.605,2.595 -0.529,1.982 c -0.035,0.14 -0.095,0.251 -0.165,0.333 l -29.46,-7.9 c 0.027,-0.093 0.059,-0.212 0.094,-0.352 l 0.533,-1.978 5.002,-0.023 0.113,-0.423 -5.511,-1.48 -0.984,3.676 c -0.216,0.8 0.196,1.616 1.236,2.451 0.98,0.867 2.27,1.518 3.871,1.946 l 19.356,5.193 c 1.648,0.44 3.13,0.561 4.447,0.357 1.284,-0.259 2.028,-0.792 2.244,-1.593 z m -9.852,-67.462 c 0.09,-0.33 -0.094,-0.683 -0.549,-1.056 -0.408,-0.36 -0.965,-0.639 -1.671,-0.827 -0.753,-0.2 -1.404,-0.223 -1.95,-0.066 -0.533,0.105 -0.839,0.302 -0.917,0.584 -0.086,0.329 0.098,0.682 0.553,1.055 0.455,0.376 0.988,0.647 1.6,0.808 0.706,0.192 1.349,0.239 1.93,0.141 0.569,-0.047 0.906,-0.263 1.004,-0.639 m 13.037,55.594 0.228,-0.848 c 0.2,-0.753 -0.192,-1.541 -1.185,-2.361 -1.027,-0.882 -2.364,-1.545 -4.012,-1.985 l -19.356,-5.188 c -1.601,-0.433 -3.044,-0.515 -4.326,-0.251 -1.314,0.199 -2.076,0.678 -2.275,1.431 l -0.228,0.847 c -0.215,0.804 0.189,1.644 1.216,2.523 0.993,0.823 2.287,1.446 3.887,1.878 l 19.36,5.189 c 1.648,0.444 3.13,0.561 4.448,0.361 1.279,-0.263 2.028,-0.796 2.243,-1.596 m -0.941,0.129 -29.459,-7.9 0.376,-1.416 29.46,7.9 z m 8.935,-33.045 0.776,0.208 1.534,-5.723 -5.722,-1.533 -0.094,0.352 4.585,2.668 -0.342,1.271 -19.285,-5.17 0.435,-1.623 3.126,-0.075 0.094,-0.353 -6.64,-1.781 -0.094,0.354 2.667,1.626 -0.435,1.625 -9.394,-2.522 0.337,-1.271 5.024,-0.09 0.095,-0.354 -5.511,-1.477 -1.533,5.721 0.846,0.228 0.095,-0.353 29.53,7.919 z m -2.424,9.041 -0.113,0.424 -29.531,-7.915 0.114,-0.424 -0.852,-0.228 -0.905,3.389 0.846,0.227 0.095,-0.352 26.989,7.236 -28.652,-4.425 -0.188,0.706 24.412,9.5 -22.608,-6.063 -1.463,-1.604 -0.777,-0.208 -0.722,2.682 0.777,0.208 2.001,-0.674 27.906,7.483 -0.113,0.424 0.776,0.208 0.698,-2.613 -20.638,-8.032 21.889,3.369 0.836,-3.11 z m 6.527,-24.07 c 0.537,-0.111 0.847,-0.331 0.937,-0.66 0.087,-0.33 -0.07,-0.674 -0.482,-1.036 -0.451,-0.376 -1.036,-0.654 -1.742,-0.846 -3.53,-0.946 -11.123,-2.656 -22.78,-5.123 l -0.153,0.565 c 11.233,3.667 18.666,5.985 22.29,6.958 0.706,0.192 1.349,0.239 1.93,0.142 m -31.041,115.486 0.777,0.212 0.835,-3.112 -0.78,-0.207 -0.095,0.353 -29.526,-7.919 0.055,-0.212 c 0.125,-0.471 0.553,-0.835 1.279,-1.094 l 28.612,7.672 -0.098,0.353 0.777,0.208 0.855,-3.181 -0.777,-0.208 -0.094,0.353 -28.754,-7.707 c -0.419,-0.518 -0.561,-1.012 -0.435,-1.483 l 0.019,-0.07 29.527,7.919 -0.074,0.282 0.776,0.208 0.835,-3.106 L -4.734,14.56 -4.812,14.842 -29.68,8.17 c -1.506,-0.399 -2.871,-0.49 -4.091,-0.263 -1.223,0.228 -1.929,0.695 -2.118,1.401 -0.164,0.612 0.067,1.255 0.695,1.929 0.674,0.687 1.604,1.263 2.788,1.734 -1.27,-0.141 -2.372,-0.082 -3.302,0.173 -0.878,0.27 -1.396,0.686 -1.545,1.251 -0.205,0.752 0.169,1.534 1.113,2.345 0.942,0.809 2.17,1.412 3.676,1.817 l 24.867,6.667 z" /></g><g
           transform="translate(382.6748,108.6904)"
           id="g196"><path
             id="path198"
             style="fill:#7b7b7b;fill-opacity:1;fill-rule:evenodd;stroke:none"
             d="M 0,0 -74.907,38.56 -41.572,92.781 -72.095,177.929 25.502,145.798 10.241,133.545 11.045,92.98 -1.208,89.364 Z M 567.913,145.798 664.71,177.929 636.596,92.781 671.135,38.56 597.436,0 l -1.208,89.364 -12.049,3.616 -0.401,40.565 z" /></g><g
           transform="translate(393.7197,201.6709)"
           id="g200"><path
             id="path202"
             style="fill:#cd8300;fill-opacity:1;fill-rule:evenodd;stroke:none"
             d="m 0,0 33.536,9.642 0.199,-13.258 h -45.988 z m -0.804,40.564 15.262,12.253 0.399,-26.51 z M 585.183,-3.616 H 539.398 L 539.198,9.642 573.134,0 Z m -27.911,29.923 -0.404,26.51 15.865,-12.253 z" /></g><g
           transform="translate(381.4668,198.0547)"
           id="g204"><path
             id="path206"
             style="fill:#4f4f4f;fill-opacity:1;fill-rule:evenodd;stroke:none"
             d="m 0,0 h 45.988 505.663 45.785 l 1.208,-89.364 0.799,-71.691 H 2.008 l -0.8,71.691 z" /></g><g
           transform="translate(427.2554,211.3125)"
           id="g208"><path
             id="path210"
             style="fill:#a6a6a6;fill-opacity:1;fill-rule:evenodd;stroke:none"
             d="m 0,0 -33.536,-9.642 -0.803,40.565 15.661,-14.258 z M 539.598,-9.642 505.663,0 l 18.074,16.665 15.461,14.258 z" /></g><g
           transform="translate(449.0078,150.5137)"
           id="g212"><path
             id="path214"
             style="fill:#ffffff;fill-opacity:1;fill-rule:nonzero;stroke:none"
             d="m 0,0 h 16.787 1.02 c 1.89,0 2.832,-0.902 2.832,-2.706 0,-1.424 -0.502,-2.361 -1.514,-2.813 -0.832,-0.38 -1.318,-0.616 -1.451,-0.702 -0.141,-0.086 -0.283,-0.286 -0.44,-0.596 -0.298,-0.557 -0.447,-1.443 -0.447,-2.656 v -52.11 c 0,-1.216 0.149,-2.103 0.447,-2.655 0.157,-0.315 0.299,-0.515 0.44,-0.601 0.133,-0.086 0.619,-0.321 1.451,-0.702 1.012,-0.451 1.514,-1.389 1.514,-2.813 0,-1.803 -0.942,-2.706 -2.832,-2.706 h -1.02 -16.826 -1.248 c -1.106,0 -1.945,0.236 -2.51,0.703 -0.564,0.47 -0.847,1.172 -0.847,2.11 0,1.525 0.604,2.478 1.812,2.863 0.981,0.345 1.561,0.561 1.742,0.652 0.172,0.086 0.353,0.286 0.525,0.595 0.377,0.628 0.565,1.616 0.565,2.97 z m -28.57,-23.945 4.001,-15.725 v -15.669 c 0,-1.597 0.047,-2.741 0.133,-3.436 0.095,-0.694 0.283,-1.455 0.589,-2.29 0.526,-1.526 1.263,-2.671 2.188,-3.436 l 1.405,-1.248 c 0.957,-0.8 1.435,-1.683 1.435,-2.655 0,-1.769 -0.949,-2.656 -2.84,-2.656 h -9.484 c -1.89,0 -2.832,0.868 -2.832,2.605 0,0.553 0.079,0.98 0.244,1.274 0.165,0.295 0.486,0.632 0.964,1.017 2.793,2.082 4.197,5.691 4.197,10.825 z M -13.908,0 -6.464,-29.205 -3.169,-13.43 V -30.715 L -11.9,-71.06 h -2.008 l -14.662,59.921 c -0.51,2.012 -1.035,3.365 -1.592,4.059 -0.321,0.451 -0.894,0.78 -1.694,0.988 -1.64,0.488 -2.463,1.566 -2.463,3.229 0,0.902 0.235,1.604 0.706,2.11 0.462,0.502 1.137,0.753 2.015,0.753 z" /></g><g
           transform="translate(506.5703,146.2969)"
           id="g216"><path
             id="path218"
             style="fill:#ffffff;fill-opacity:1;fill-rule:nonzero;stroke:none"
             d="M 0,0 V 5.625 C 2.723,5.448 5.209,4.687 7.46,3.334 9.72,1.981 11.814,0 13.759,-2.601 c 5.138,-6.906 7.712,-16.503 7.712,-28.789 0,-12.045 -2.463,-21.43 -7.374,-28.165 C 10.316,-64.76 5.617,-67.658 0,-68.247 v 5.726 c 0.651,0.208 1.161,0.475 1.53,0.805 0.361,0.329 0.698,0.808 1.004,1.432 0.675,1.423 1.02,3.576 1.02,6.455 v 46.542 c 0,1.839 -0.227,3.299 -0.682,4.373 -0.307,0.729 -0.66,1.302 -1.075,1.718 C 1.381,-0.78 0.777,-0.38 0,0 M -3.098,0 C -4.385,-0.623 -5.294,-1.475 -5.82,-2.549 -6.354,-3.628 -6.612,-5.204 -6.612,-7.287 v -46.542 c 0,-3.055 0.298,-5.204 0.902,-6.455 0.478,-1.04 1.349,-1.785 2.612,-2.237 v -5.726 c -5.593,0.624 -10.284,3.522 -14.066,8.692 -4.91,6.735 -7.365,16.12 -7.365,28.165 0,6.036 0.643,11.496 1.945,16.371 1.294,4.876 3.216,9.014 5.766,12.418 1.938,2.601 4.032,4.582 6.275,5.935 2.236,1.353 4.723,2.114 7.445,2.291 z" /></g><g
           transform="translate(570.1343,105.1182)"
           id="g220"><path
             id="path222"
             style="fill:#ffffff;fill-opacity:1;fill-rule:nonzero;stroke:none"
             d="m 0,0 -2,9.789 4.346,21.918 c 0.275,1.384 0.424,2.235 0.446,2.55 0.056,0.761 -0.069,1.611 -0.375,2.549 -0.401,1.215 -1.028,2.011 -1.891,2.396 l -1.248,0.624 c -0.98,0.451 -1.474,1.337 -1.474,2.655 0,0.938 0.282,1.656 0.831,2.162 0.557,0.502 1.326,0.753 2.306,0.753 h 9.265 c 1.161,0 1.914,-0.158 2.267,-0.467 0.604,-0.522 0.91,-1.267 0.91,-2.24 0,-0.659 -0.094,-1.18 -0.29,-1.561 -0.189,-0.385 -0.534,-0.73 -1.036,-1.043 l -1.93,-1.247 C 9.319,38.315 8.551,37.284 7.806,35.739 7.06,34.193 6.488,32.433 6.087,30.456 Z m -1.436,-7.445 -3.592,-18.219 h -9.939 L -28.42,36.547 c -0.204,0.937 -0.392,1.569 -0.573,1.898 -0.173,0.329 -0.447,0.616 -0.832,0.859 -0.8,0.451 -1.333,0.867 -1.584,1.252 -0.251,0.38 -0.377,0.953 -0.377,1.717 0,1.04 0.337,1.856 1.02,2.448 0.526,0.451 1.396,0.675 2.604,0.675 h 16.819 c 1.059,0 1.788,-0.036 2.181,-0.103 0.384,-0.07 0.706,-0.208 0.957,-0.415 0.251,-0.243 0.47,-0.593 0.643,-1.044 0.18,-0.451 0.267,-0.886 0.267,-1.302 0,-1.282 -0.44,-2.204 -1.326,-2.758 -0.651,-0.45 -1.098,-0.909 -1.341,-1.379 -0.235,-0.467 -0.353,-1.138 -0.353,-2.005 0,-0.557 0.031,-1.039 0.109,-1.459 z" /></g><g
           transform="translate(615.562,79.4541)"
           id="g224"><path
             id="path226"
             style="fill:#ffffff;fill-opacity:1;fill-rule:nonzero;stroke:none"
             d="m 0,0 h -16.858 -0.98 c -0.911,0 -1.608,0.235 -2.103,0.702 -0.486,0.471 -0.737,1.138 -0.737,2.004 0,1.424 0.51,2.361 1.514,2.813 0.831,0.38 1.318,0.616 1.459,0.702 0.133,0.086 0.282,0.286 0.432,0.6 0.305,0.553 0.454,1.44 0.454,2.656 v 52.11 c 0,1.213 -0.149,2.099 -0.454,2.655 -0.15,0.311 -0.299,0.511 -0.432,0.597 -0.141,0.086 -0.628,0.321 -1.459,0.702 -1.004,0.451 -1.514,1.389 -1.514,2.813 0,0.866 0.251,1.537 0.737,2.003 0.495,0.471 1.192,0.703 2.103,0.703 h 0.98 H 0 0.98 c 0.911,0 1.608,-0.232 2.103,-0.703 C 3.569,69.891 3.82,69.22 3.82,68.354 3.82,66.93 3.311,65.992 2.306,65.541 1.475,65.16 0.988,64.925 0.847,64.839 0.714,64.753 0.564,64.553 0.416,64.242 0.109,63.686 -0.04,62.8 -0.04,61.587 V 9.477 C -0.04,8.261 0.109,7.374 0.416,6.821 0.564,6.507 0.714,6.307 0.847,6.221 0.988,6.135 1.475,5.899 2.306,5.519 3.311,5.067 3.82,4.13 3.82,2.706 3.82,1.84 3.569,1.173 3.083,0.702 2.588,0.235 1.891,0 0.98,0 Z" /></g><g
           transform="translate(657.3574,79.4541)"
           id="g228"><path
             id="path230"
             style="fill:#ffffff;fill-opacity:1;fill-rule:nonzero;stroke:none"
             d="M 0,0 V 5.621 C 1.632,5.97 2.989,6.456 4.063,7.08 5.13,7.703 6.205,8.661 7.295,9.943 c 1.083,1.283 1.946,2.613 2.589,3.981 0.643,1.373 1.247,3.185 1.827,5.44 0.283,1.115 0.573,1.867 0.871,2.268 0.306,0.395 0.722,0.596 1.248,0.596 0.706,0 1.2,-0.287 1.475,-0.86 0.274,-0.572 0.415,-1.568 0.415,-2.992 L 15.72,0 Z M -0.039,71.06 H 15.194 V 52.633 c 0,-1.079 -0.156,-1.86 -0.455,-2.346 -0.305,-0.486 -0.784,-0.725 -1.435,-0.725 -0.557,0 -0.957,0.153 -1.208,0.466 -0.259,0.314 -0.494,0.953 -0.722,1.926 -0.957,4.028 -2.361,7.1 -4.212,9.214 -1.851,2.117 -4.252,3.385 -7.201,3.8 z M -0.228,33.162 v 6.037 c 1.459,0.973 2.542,2.031 3.248,3.177 0.706,1.145 1.224,2.671 1.553,4.581 0.196,1.318 0.463,2.229 0.793,2.734 0.329,0.502 0.792,0.753 1.396,0.753 0.808,0 1.365,-0.431 1.663,-1.301 0.18,-0.452 0.266,-1.476 0.266,-3.072 V 26.236 c 0,-1.632 -0.133,-2.757 -0.399,-3.382 -0.259,-0.626 -0.746,-0.936 -1.452,-0.936 -0.58,0 -1.035,0.243 -1.365,0.729 -0.322,0.483 -0.588,1.298 -0.792,2.444 -0.424,2.396 -1.036,4.236 -1.836,5.518 -0.792,1.287 -1.82,2.138 -3.075,2.553 M -3.404,71.06 V 0 h -16.819 -0.981 c -0.91,0 -1.608,0.235 -2.102,0.702 -0.486,0.471 -0.737,1.138 -0.737,2.004 0,1.424 0.509,2.361 1.513,2.813 0.832,0.38 1.319,0.616 1.459,0.702 0.134,0.086 0.283,0.286 0.432,0.6 0.306,0.553 0.455,1.44 0.455,2.656 v 52.11 c 0,1.213 -0.149,2.099 -0.455,2.655 -0.149,0.311 -0.298,0.511 -0.432,0.597 -0.14,0.086 -0.627,0.321 -1.459,0.702 -1.004,0.451 -1.513,1.389 -1.513,2.813 0,0.866 0.251,1.537 0.737,2.003 0.494,0.471 1.192,0.703 2.102,0.703 h 0.981 z" /></g><g
           transform="translate(754.8955,150.5137)"
           id="g232"><path
             id="path234"
             style="fill:#ffffff;fill-opacity:1;fill-rule:nonzero;stroke:none"
             d="m 0,0 v -21.29 c 0,-1.008 -0.212,-1.824 -0.628,-2.447 -0.415,-0.624 -0.949,-0.938 -1.607,-0.938 -0.628,0 -1.154,0.286 -1.57,0.859 -0.416,0.573 -0.682,1.361 -0.807,2.37 l -0.377,3.176 c -0.384,3.224 -1.115,6.021 -2.197,8.378 -0.682,1.459 -1.6,2.656 -2.761,3.592 V 0 Z m -13.077,0 v -61.167 c 0,-1.354 0.188,-2.326 0.565,-2.915 0.197,-0.349 0.392,-0.564 0.565,-0.65 0.18,-0.091 0.753,-0.307 1.742,-0.652 1.207,-0.385 1.811,-1.338 1.811,-2.863 0,-0.902 -0.329,-1.632 -0.98,-2.189 -0.479,-0.416 -1.286,-0.624 -2.424,-0.624 h -1.248 -16.857 -1.247 c -1.107,0 -1.946,0.236 -2.511,0.703 -0.565,0.47 -0.847,1.172 -0.847,2.11 0,1.525 0.605,2.478 1.812,2.863 0.981,0.345 1.561,0.561 1.742,0.652 0.172,0.086 0.345,0.301 0.525,0.65 0.377,0.589 0.565,1.561 0.565,2.915 V 0 Z m -29.785,0 h 9.939 v -6.3 c -1.184,-0.936 -2.102,-2.133 -2.762,-3.592 -1.082,-2.357 -1.812,-5.154 -2.188,-8.378 l -0.377,-3.176 c -0.125,-1.009 -0.399,-1.797 -0.815,-2.37 -0.416,-0.573 -0.942,-0.859 -1.57,-0.859 -0.65,0 -1.192,0.314 -1.607,0.938 -0.416,0.623 -0.62,1.439 -0.62,2.447 z" /></g><g
           transform="translate(787.96,79.4541)"
           id="g236"><path
             id="path238"
             style="fill:#ffffff;fill-opacity:1;fill-rule:nonzero;stroke:none"
             d="m 0,0 h -16.857 -0.981 c -0.91,0 -1.608,0.235 -2.102,0.702 -0.487,0.471 -0.738,1.138 -0.738,2.004 0,1.424 0.51,2.361 1.514,2.813 0.831,0.38 1.317,0.616 1.459,0.702 0.134,0.086 0.282,0.286 0.432,0.6 0.305,0.553 0.455,1.44 0.455,2.656 v 52.11 c 0,1.213 -0.15,2.099 -0.455,2.655 -0.15,0.311 -0.298,0.511 -0.432,0.597 -0.142,0.086 -0.628,0.321 -1.459,0.702 -1.004,0.451 -1.514,1.389 -1.514,2.813 0,0.866 0.251,1.537 0.738,2.003 0.494,0.471 1.192,0.703 2.102,0.703 H -16.857 0 0.98 c 0.911,0 1.609,-0.232 2.103,-0.703 C 3.569,69.891 3.82,69.22 3.82,68.354 3.82,66.93 3.311,65.992 2.307,65.541 1.475,65.16 0.988,64.925 0.847,64.839 0.714,64.753 0.564,64.553 0.416,64.242 0.109,63.686 -0.039,62.8 -0.039,61.587 V 9.477 C -0.039,8.261 0.109,7.374 0.416,6.821 0.564,6.507 0.714,6.307 0.847,6.221 0.988,6.135 1.475,5.899 2.307,5.519 3.311,5.067 3.82,4.13 3.82,2.706 3.82,1.84 3.569,1.173 3.083,0.702 2.589,0.235 1.891,0 0.98,0 Z" /></g><g
           transform="translate(839.5059,150.5137)"
           id="g240"><path
             id="path242"
             style="fill:#ffffff;fill-opacity:1;fill-rule:nonzero;stroke:none"
             d="m 0,0 h 16.779 1.02 c 1.89,0 2.841,-0.902 2.841,-2.706 0,-1.424 -0.511,-2.361 -1.515,-2.813 -0.831,-0.38 -1.317,-0.616 -1.459,-0.702 -0.134,-0.086 -0.282,-0.286 -0.432,-0.596 -0.305,-0.557 -0.455,-1.443 -0.455,-2.656 v -52.11 c 0,-1.216 0.15,-2.103 0.455,-2.655 0.15,-0.315 0.298,-0.515 0.432,-0.601 0.142,-0.086 0.628,-0.321 1.459,-0.702 1.004,-0.451 1.515,-1.389 1.515,-2.813 0,-1.803 -0.951,-2.706 -2.841,-2.706 h -1.02 -16.818 -1.247 c -1.107,0 -1.945,0.236 -2.51,0.703 -0.573,0.47 -0.855,1.172 -0.855,2.11 0,1.525 0.603,2.478 1.811,2.863 0.988,0.345 1.569,0.561 1.741,0.652 0.182,0.086 0.354,0.286 0.535,0.595 0.376,0.628 0.564,1.616 0.564,2.97 z m -28.577,-23.945 4.009,-15.725 v -15.669 c 0,-1.597 0.047,-2.741 0.132,-3.436 0.087,-0.694 0.283,-1.455 0.589,-2.29 0.526,-1.526 1.255,-2.671 2.189,-3.436 l 1.396,-1.248 c 0.956,-0.8 1.436,-1.683 1.436,-2.655 0,-1.769 -0.942,-2.656 -2.832,-2.656 h -9.485 c -1.889,0 -2.839,0.868 -2.839,2.605 0,0.553 0.086,0.98 0.251,1.274 0.157,0.295 0.478,0.632 0.957,1.017 2.8,2.082 4.197,5.691 4.197,10.825 z M -13.908,0 l 7.444,-29.205 3.287,15.775 v -17.285 l -8.731,-40.345 h -2 l -14.669,59.921 c -0.502,2.012 -1.027,3.365 -1.585,4.059 -0.329,0.451 -0.894,0.78 -1.702,0.988 -1.64,0.488 -2.455,1.566 -2.455,3.229 0,0.902 0.235,1.604 0.698,2.11 0.463,0.502 1.138,0.753 2.023,0.753 z" /></g><g
           transform="translate(898.1201,79.4541)"
           id="g244"><path
             id="path246"
             style="fill:#ffffff;fill-opacity:1;fill-rule:nonzero;stroke:none"
             d="m 0,0 v 5.621 c 1.64,0.349 2.996,0.835 4.063,1.459 1.075,0.623 2.15,1.581 3.232,2.863 1.083,1.283 1.945,2.613 2.589,3.981 0.643,1.373 1.256,3.185 1.836,5.44 0.274,1.115 0.564,1.867 0.87,2.268 0.299,0.395 0.714,0.596 1.248,0.596 0.706,0 1.192,-0.287 1.475,-0.86 0.274,-0.572 0.415,-1.568 0.415,-2.992 L 15.728,0 Z M -0.039,71.06 H 15.194 V 52.633 c 0,-1.079 -0.148,-1.86 -0.454,-2.346 -0.299,-0.486 -0.777,-0.725 -1.436,-0.725 -0.549,0 -0.957,0.153 -1.208,0.466 -0.251,0.314 -0.494,0.953 -0.721,1.926 -0.958,4.028 -2.361,7.1 -4.213,9.214 -1.851,2.117 -4.252,3.385 -7.201,3.8 z M -0.228,33.162 v 6.037 c 1.467,0.973 2.55,2.031 3.255,3.177 0.706,1.145 1.217,2.671 1.546,4.581 0.204,1.318 0.471,2.229 0.792,2.734 0.33,0.502 0.801,0.753 1.405,0.753 0.8,0 1.357,-0.431 1.663,-1.301 0.172,-0.452 0.258,-1.476 0.258,-3.072 V 26.236 c 0,-1.632 -0.125,-2.757 -0.392,-3.382 -0.267,-0.626 -0.753,-0.936 -1.458,-0.936 -0.581,0 -1.029,0.243 -1.358,0.729 -0.33,0.483 -0.596,1.298 -0.792,2.444 -0.431,2.396 -1.044,4.236 -1.836,5.518 -0.792,1.287 -1.82,2.138 -3.083,2.553 M -3.396,71.06 V 0 h -16.827 -0.981 c -0.901,0 -1.608,0.235 -2.095,0.702 -0.493,0.471 -0.736,1.138 -0.736,2.004 0,1.424 0.502,2.361 1.514,2.813 0.831,0.38 1.309,0.616 1.451,0.702 0.141,0.086 0.282,0.286 0.431,0.6 0.306,0.553 0.454,1.44 0.454,2.656 v 52.11 c 0,1.213 -0.148,2.099 -0.454,2.655 -0.149,0.311 -0.29,0.511 -0.431,0.597 -0.142,0.086 -0.62,0.321 -1.451,0.702 -1.012,0.451 -1.514,1.389 -1.514,2.813 0,0.866 0.243,1.537 0.736,2.003 0.487,0.471 1.194,0.703 2.095,0.703 h 0.981 z" /></g><g
           transform="translate(937.0439,98.3008)"
           id="g248"><path
             id="path250"
             style="fill:#ffffff;fill-opacity:1;fill-rule:nonzero;stroke:none"
             d="m 0,0 c 2.017,0 3.742,-0.988 5.178,-2.97 1.435,-1.976 2.149,-4.352 2.149,-7.13 0,-2.812 -0.714,-5.205 -2.149,-7.185 -1.436,-1.977 -3.161,-2.966 -5.178,-2.966 -2.039,0 -3.78,0.989 -5.216,2.966 -1.435,1.98 -2.157,4.373 -2.157,7.185 0,2.778 0.722,5.154 2.157,7.13 C -3.78,-0.988 -2.039,0 0,0 m 0.188,53.672 c 2.212,0 4.041,-1.216 5.476,-3.644 C 7.107,47.597 7.821,44.51 7.821,40.76 7.821,39.199 7.68,37.575 7.405,35.893 7.131,34.21 6.59,31.652 5.782,28.217 4.621,23.356 3.813,19.478 3.342,16.579 2.879,13.681 2.597,10.845 2.495,8.068 2.44,6.645 2.244,5.64 1.906,5.048 1.569,4.459 1.02,4.165 0.26,4.165 c -0.652,0 -1.138,0.251 -1.451,0.753 -0.315,0.503 -0.496,1.326 -0.55,2.472 -0.15,2.325 -0.275,3.964 -0.376,4.922 -0.103,0.953 -0.338,2.436 -0.722,4.452 -0.604,3.258 -1.381,6.765 -2.338,10.515 -1.137,4.405 -1.851,7.425 -2.141,9.057 -0.29,1.631 -0.432,3.42 -0.432,5.361 0,3.126 0.69,5.864 2.079,8.225 1.436,2.499 3.389,3.75 5.859,3.75" /></g></g></g></g></svg>